<svg xmlns="http://www.w3.org/2000/svg" viewBox="0 0 1194.43 819.04"><defs><style>.cls-1{fill:#6d6d6d;}.cls-2,.cls-3{fill:none;stroke:#111;stroke-linejoin:round;stroke-width:6px;}.cls-2{stroke-linecap:round;}.cls-4{fill:#111;}</style></defs><g id="Layer_2" data-name="Layer 2"><g id="outline_III" data-name="outline III"><g id="Error_404" data-name="Error 404"><g id="small_box" data-name="small box"><polyline id="box" class="cls-1" points="394.23 815.23 154.81 815.23 154.81 685.11 387.07 685.11"/><polyline id="tape" class="cls-2" points="225.94 689.45 226 764.05 246.77 730.22 267.54 764.05 286.12 733.8 303.09 761.45 303.09 689.02"/></g><g id="cable"><g id="cable_III" data-name="cable III"><line id="path" class="cls-2" x1="259.91" y1="262.48" x2="252.82" y2="236.15"/><path id="cable-2" data-name="cable" class="cls-2" d="M397.89,478.36c1.75-18.8,7.2-53.66-37.93-75.3s-72.66-43.15-84.69-91.3"/><rect id="plug" class="cls-1" x="237.46" y="275.64" width="59.55" height="22.25" rx="8.13" transform="translate(474.72 -45.8) rotate(74.94)"/></g><g id="cable_II" data-name="cable II"><line id="path-2" data-name="path" class="cls-2" x1="180.61" y1="390.65" x2="153.35" y2="390.63"/><rect id="plug-2" data-name="plug" class="cls-1" x="176.19" y="378.79" width="59.55" height="22.25" rx="8.13"/><path id="cable-3" data-name="cable" class="cls-2" d="M229.41,388.87s100.19-5.64,147,78.51"/></g><g id="cable-4" data-name="cable"><path id="cable-5" data-name="cable" class="cls-2" d="M821.89,577.55c26.89,0,46,6.28,47.28,66.79s-1.4,115.21,51.4,114.51c48.79-.65,37.95-20.39,60.5-19.52"/><g id="plug-3" data-name="plug"><rect class="cls-1" x="969.8" y="715.04" width="69.4" height="48.14" rx="6.51"/><line class="cls-3" x1="1015.34" y1="714.97" x2="1015.27" y2="763.26"/><line class="cls-2" x1="1027.77" y1="727.91" x2="1064.93" y2="727.91"/><line class="cls-2" x1="1027.77" y1="745.91" x2="1064.93" y2="745.91"/></g></g></g><g id="stars_bg" data-name="stars bg"><g id="star"><line class="cls-2" x1="843.14" y1="32.49" x2="843.14" y2="57.13"/><line class="cls-2" x1="855.46" y1="44.81" x2="830.83" y2="44.81"/></g><g id="star-2" data-name="star"><line class="cls-2" x1="667.92" y1="122.71" x2="667.92" y2="147.34"/><line class="cls-2" x1="680.23" y1="135.03" x2="655.6" y2="135.03"/></g><g id="star-3" data-name="star"><line class="cls-2" x1="526.52" y1="3" x2="526.52" y2="27.63"/><line class="cls-2" x1="538.83" y1="15.32" x2="514.2" y2="15.32"/></g><g id="star-4" data-name="star"><line class="cls-2" x1="378.18" y1="203.39" x2="378.18" y2="228.02"/><line class="cls-2" x1="390.5" y1="215.7" x2="365.86" y2="215.7"/></g><g id="star-5" data-name="star"><line class="cls-2" x1="208.16" y1="107.96" x2="208.16" y2="132.6"/><line class="cls-2" x1="220.47" y1="120.28" x2="195.84" y2="120.28"/></g><g id="star-6" data-name="star"><line class="cls-2" x1="181.27" y1="473.17" x2="181.27" y2="497.8"/><line class="cls-2" x1="193.58" y1="485.49" x2="168.95" y2="485.49"/></g><g id="star-7" data-name="star"><line class="cls-2" x1="131.82" y1="269.31" x2="131.82" y2="293.95"/><line class="cls-2" x1="144.14" y1="281.63" x2="119.5" y2="281.63"/></g><g id="star-8" data-name="star"><line class="cls-2" x1="954.61" y1="340.01" x2="954.61" y2="364.65"/><line class="cls-2" x1="966.93" y1="352.33" x2="942.3" y2="352.33"/></g><g id="star-9" data-name="star"><line class="cls-2" x1="1000.16" y1="135.72" x2="1000.16" y2="160.36"/><line class="cls-2" x1="1012.47" y1="148.04" x2="987.84" y2="148.04"/></g><g id="star-10" data-name="star"><line class="cls-2" x1="1091.24" y1="497.46" x2="1091.24" y2="522.09"/><line class="cls-2" x1="1103.56" y1="509.77" x2="1078.92" y2="509.77"/></g></g><g id="box-2" data-name="box"><g id="box-3" data-name="box"><path id="_0" data-name="0" class="cls-4" d="M540.31,610.08a23,23,0,0,0-6.47-4.24,19.92,19.92,0,0,0-15.36,0,22.58,22.58,0,0,0-6.5,4.24q-4.78,5.19-7.42,14a84.45,84.45,0,0,0,0,41.9q2.64,8.84,7.42,14a22.17,22.17,0,0,0,6.5,4.24,19.8,19.8,0,0,0,15.36,0,22.56,22.56,0,0,0,6.47-4.24q4.83-5.18,7.44-14a85.07,85.07,0,0,0,0-41.9Q545.14,615.27,540.31,610.08Zm-4.47,65.46a13.31,13.31,0,0,1-9.7,4,13.12,13.12,0,0,1-9.7-4q-8.18-9.18-8.17-30.52t8.17-30.36a13.14,13.14,0,0,1,9.7-4.07,13.34,13.34,0,0,1,9.7,4.07q8.24,9.18,8.23,30.36T535.84,675.54Z"/><path id="shape" class="cls-4" d="M854.58,525.55H747.85a3,3,0,0,1-1.29-.31h0a3,3,0,0,1-2.54-1.41l-58.76-94V809.16a3,3,0,0,1-6,0V426.85L581.86,525.6s0,0,0,0a3,3,0,0,1-2.81,2H380.06a2.83,2.83,0,0,1-1-.19V818.56H855.29V525.45A2.83,2.83,0,0,1,854.58,525.55ZM635.67,689.63a15,15,0,0,1-15,15H433.24a15,15,0,0,1-15-15V602.52a15,15,0,0,1,15-15H620.67a15,15,0,0,1,15,15ZM789,663.21V764.7H761.25V661.47H738.7l38.17-106.7L813.3,663.21Z"/><path id="_4" data-name="4" class="cls-4" d="M490.65,659.29h-9.5V607.65A3.11,3.11,0,0,0,478,604.5a2.92,2.92,0,0,0-2.59,1.27l-37.93,54.84a3.12,3.12,0,0,0-.56,1.83,3,3,0,0,0,.91,2.24,3.09,3.09,0,0,0,2.24.91h34.78v17.06a3.06,3.06,0,0,0,.92,2.24,3.15,3.15,0,0,0,5.38-2.24V665.59h9.5a3.15,3.15,0,1,0,0-6.3Zm-15.8,0H446.16l28.69-41.44Z"/><path id="_4-2" data-name="4" class="cls-4" d="M612.52,659.29H603V607.65a3.06,3.06,0,0,0-.92-2.24,3,3,0,0,0-2.23-.91,2.91,2.91,0,0,0-2.59,1.27l-37.94,54.84a3.18,3.18,0,0,0-.55,1.83,3.11,3.11,0,0,0,3.14,3.15h34.79v17.06a3.06,3.06,0,0,0,.92,2.24,3.19,3.19,0,0,0,4.46,0,3.06,3.06,0,0,0,.92-2.24V665.59h9.49a3.09,3.09,0,0,0,2.24-.91,3.16,3.16,0,0,0-2.24-5.39Zm-15.79,0H568l28.69-41.44Z"/></g><g id="upper_box" data-name="upper box"><polygon class="cls-4" points="576.01 521.63 576.01 503.95 268.37 503.95 268.01 521.74 576.01 521.63"/><polyline class="cls-4" points="964.79 501.87 750.85 501.87 750.85 519.55 964.78 519.64 964.77 501.91"/><path class="cls-4" d="M964.73,495,853.5,394.56H818.71s2.46,34.21-28.19,39c-6.51,1.3-22.7-9.4-30.51-31.09-.38-2.94,6.22,42.94-20.38,45.25-35.28.29-82.7-51-82.7-51H379.05L268.63,498H577.14L668,405.85a3,3,0,0,1,4.27,4.21L582,501.56v15.35l97.21-98.6a3.06,3.06,0,0,1,1.43-.8l.28-.22a3,3,0,0,1,4.13.95l59.79,95.66V500l-40.1-63.09a3,3,0,0,1,5.07-3.22l39.55,62.23H964.71"/><path class="cls-4" d="M679.63,419.07a3,3,0,0,1,2.55-1.53,3.05,3.05,0,0,0-1.53,0A3,3,0,0,0,679.63,419.07Z"/></g></g><g id="cat"><path class="cls-2" d="M797.6,223.4c-20-5.49-34.41-2.1-34.41-2.1-12.72-28.33-53-54.65-53-54.65-28.33,14.75-15.32,74.9-15.32,74.9l-16.19,6.07c-20.24-24.58-48.58-51.47-56.75-52.05-18.87-1.34-19.52,83.28-19.52,83.28C556.5,306.16,509.54,334.7,473,359.29c1.35-17.57,9.72-40.27,30.12-68,37.3-50.75,45.54-117.87,11.13-158.46-48.29-57-92.53-37.6-118.84-12.43-26.61,25.44-30.66,70.26,11,40.48,41.91-30,62.46-14.46,82.12,22.56s-41.06,94-69.39,140.24c-15.89,25.94-23.72,51.57-23.38,73h192.2c-.39.44-.77.87-1.11,1.3l9.53-1.3h61.19C682,420.19,739.27,464,752.06,438.75c6.45-12.71,9.27-26.65,6.59-39.88,5.67,10.83,23.41,41.43,38.83,32.86,13.36-7.42,24-28.2,21.41-50,9.94-9.17,17.59-18.93,22.38-29.17C880.3,282.32,815.35,228.29,797.6,223.4Z"/><g id="whiskers"><path class="cls-2" d="M817.55,265.26c23.86-36.44,80.25-41.64,80.25-41.64"/><path class="cls-2" d="M827.53,294.75c5.64-11.28,47.28-34.7,78.51-25.59"/></g><g id="whiskers_II" data-name="whiskers II"><path class="cls-2" d="M690.92,325.54c-17.07-5.58-51.2-9.41-77.32,15.67"/><path class="cls-2" d="M689.46,310.51c-16.48-14.31-60.29-18.22-90.65,4.77"/></g><path id="ear_line_II" data-name="ear line II" class="cls-2" d="M631.05,202.8s-21.69,51.61,2.17,69"/><path id="ear_line" data-name="ear line" class="cls-2" d="M714.76,173.74s-11.28,39-.87,65.49"/><ellipse id="eye" class="cls-4" cx="715.08" cy="291.55" rx="7.8" ry="12.31" transform="translate(-55.93 248.22) rotate(-18.97)"/><ellipse id="eye-2" data-name="eye" class="cls-4" cx="773.63" cy="272.9" rx="7.8" ry="12.31" transform="translate(-46.69 266.24) rotate(-18.97)"/><path id="nose" class="cls-4" d="M772.38,296.54l-7.2,11.86a3.76,3.76,0,0,1-5.11,1.19l-11.15-6.65a3.41,3.41,0,0,1,.86-6.28l18.35-5.21C771.3,290.54,774,293.81,772.38,296.54Z"/><path id="mouth" class="cls-2" d="M753.16,320.87c11.49,14.57,11.12-3.58,9.3-13.14,3.7,8.31,13.49,20.36,15,7"/><g id="paw_lines_II" data-name="paw lines II"><path class="cls-2" d="M738.83,445.91c-1.16-3.18-19.3-39.26-37.23-52.85"/><path class="cls-2" d="M727.34,382.36c.86.29,22,35,22.84,58.7"/><path class="cls-2" d="M586.81,398c16.48-20.39,92-59.86,134-40.77s45.54,53.35,31.23,81.54"/></g><g id="paw_lines" data-name="paw lines"><path class="cls-2" d="M771.36,378s19.52,37.08,19.95,55.08"/><path class="cls-2" d="M795.65,369.79s14.31,43.15,5.86,59.85"/><path class="cls-2" d="M736.85,363.57c5.27-8.47,51.59-36.15,72.11-7.35,3.73,5.23,7.8,15.42,9.46,20.94"/></g></g><line id="line" class="cls-2" x1="3" y1="816.04" x2="1191.43" y2="816.04"/></g></g></g></svg>