<svg xmlns="http://www.w3.org/2000/svg" viewBox="0 0 1590.63 615.34"><defs><style>.cls-1,.cls-10,.cls-11,.cls-12,.cls-4,.cls-5,.cls-9{fill:none;}.cls-1,.cls-10,.cls-11,.cls-7,.cls-9{stroke:#6d6d6d;}.cls-1,.cls-10,.cls-11,.cls-12,.cls-4,.cls-5,.cls-6,.cls-7,.cls-9{stroke-linecap:round;stroke-linejoin:round;}.cls-1,.cls-10,.cls-11,.cls-4,.cls-6,.cls-7,.cls-9{stroke-width:6px;}.cls-2{fill:#6d6d6d;}.cls-3{fill:#111;}.cls-12,.cls-4,.cls-5,.cls-6{stroke:#111;}.cls-5{stroke-width:8px;}.cls-6,.cls-7,.cls-8{fill:#fff;}.cls-8{opacity:0.5;}.cls-9{stroke-dasharray:13.8 13.8;}.cls-10{stroke-dasharray:12.22 12.22;}.cls-11{stroke-dasharray:11.64 11.64;}.cls-12{stroke-width:7px;}</style></defs><g id="Layer_2" data-name="Layer 2"><g id="outline"><g id="circle_graph" data-name="circle graph"><path class="cls-1" d="M575.19,197.77a134.44,134.44,0,0,0,89.07,125l45.11-126.38Z"/><path class="cls-2" d="M678.86,36.47A134.18,134.18,0,0,0,568,170l134.18-1.41Z"/><circle class="cls-3" cx="814.58" cy="49.6" r="12.37"/><circle class="cls-1" cx="583.46" cy="293.19" r="12.37"/><circle class="cls-2" cx="571.08" cy="75.22" r="12.37"/><line class="cls-4" x1="838" y1="41.96" x2="944.88" y2="41.96"/><line class="cls-4" x1="838" y1="57.23" x2="869.84" y2="57.23"/><path class="cls-3" d="M839.62,237.35c-9.84,6.4-16.74,5.22-10.15-9.29s32.37-12.62,32.37-12.62-31.91-16.68-38.58-22.56c-5-4.37-3.08-12.85,11.82-7.48a26.79,26.79,0,0,1-7.19-5.3c-6.32-7.53,1.85-12.06,24.77-1.45l.79,1.09,1-.5c-10.37-4.07-20-8.71-18.55-11.75,2.45-5.14,8.8-6.63,33.16,2.64l.61.27s0-.05,0-.08a85.51,85.51,0,0,1-10.45-6.07c-15.07-10.36,5.25-7.51,5.25-7.51l2.29.62C850.87,100.24,797.81,58.07,736,58.72a132.67,132.67,0,0,0-21.89,2.06l23.3,132.12L692.7,319.42a134.31,134.31,0,0,0,46.12,7.66c58-.61,107.58-38.81,125.55-91C855.35,234.67,844.74,234,839.62,237.35Z"/></g><g id="man"><g id="hoodie"><path class="cls-4" d="M1392.49,611.19,1376.9,530c8.42-.4,6-.64,8.53-.72,73.15-2.34,104-99.93,45.23-191-46.36-71.84-97-103.39-116.33-113.51-.19-19.34-16.27-36.57-63.2-44.9M883.79,248.12c.6,15.94,8.18,37.08,28.05,56.15,8.17,7.85,24.25,20,43.54,33.65m185.86-155.59c-17.65,8.36-25,21.53-27.8,34.59l-78-1.59-105.85-37"/><path class="cls-3" d="M1158.73,336.66l52.74-.54c27.52-76.2,70.47-108.87,70.47-108.87l-13.69-14.09-2.54-.1,1.1,1.26s-56.93,49.16-75.3,68.86c-12.29-13-32.58-61.94-33.35-60.5-8.23,15.6-15.43,53.49-3.63,87.86C1156.82,317.2,1158.13,326.23,1158.73,336.66Z"/><path id="shape" class="cls-3" d="M1116.09,249c-.34-8-2.25-20.13.46-32.6l-41.92-.26c.41,14.38,8.74,56.84,49.66,65.83A83.38,83.38,0,0,1,1116.09,249Z"/><path id="shapeII" class="cls-3" d="M1354.06,251.41c-17.2-13.91-34.2-22.28-42.55-26.65.27,28.21-30.49,60.91-51.53,77,1.06.15,2.18.28,3.39.36,27,1.85,91.12-34.37,102-40.59C1361.87,258.61,1358,255.12,1354.06,251.41Z"/><path class="cls-4" d="M1331.72,384.85s23.78-36.22,67.21-14.46"/><path class="cls-4" d="M1330.39,373.9s20.3-32.75,62-20.79"/><path id="line_II" data-name="line II" class="cls-5" d="M1139.31,298.72a288.24,288.24,0,0,1,5.7,36.19"/><path id="line" class="cls-5" d="M1245.84,301s-7.39,15.37-13.9,33.93"/></g><path id="neck" class="cls-4" d="M1250.86,181.68l3.55,20.91,12.5,14.12-1.4.9s-37.3,23.06-73,63.69c0,0-18.84-19.89-28.91-52.76"/><g id="head"><path id="ear" class="cls-4" d="M1260.23,129.47s23.78.46,19.52,21.74c-2.87,14.37-15.79,13.43-23.87,11.3"/><path id="face" class="cls-4" d="M1138.59,95c-3.16,24.1-1.9,49.9.48,69.69"/><path id="beard" class="cls-4" d="M1247.59,134c-3.91,3.95-14.41,26.7-17,37.31,0,0-26-8.91-63.22-9.46,0,0-20.29.42-28.39,2.87,0,0,1.76,37.57,18.21,57s51.26,14,67.58,2.31,19-17.27,22.79-29.79S1262.94,127,1262.94,127Z"/><path id="hair" class="cls-3" d="M1258.16,142s11.17-17.29,15.48-35.26c4-16.9-3.8-34.6-19.44-42.17-13.09-6.34-22.8-1.37-22.8-1.37s13.9-23.65-7-44.54a38,38,0,0,0-27.89-11.12,36.57,36.57,0,0,0-33.31,22.27S1136-20.25,1080.14,9.37c-5.64,3-12,11.32-15,16.93-18.45,34,42.35,74.27,74,77.46,34.75,3.49,55.1-2.27,66.29-10.77C1197.1,98,1206.46,150,1258.16,142Z"/><polyline id="nose" class="cls-4" points="1165.02 147.36 1161.26 180.09 1172.8 177.14"/><ellipse id="eye" class="cls-3" cx="1152.32" cy="147.93" rx="3.35" ry="5.19"/><ellipse id="eye_II" data-name="eye II" class="cls-3" cx="1184.61" cy="147.36" rx="3.35" ry="5.19"/><path id="brow" class="cls-4" d="M1199.77,123.35a15.36,15.36,0,0,0-14.55-5.72"/><path id="brow_II" data-name="brow II" class="cls-4" d="M1154.42,117.09s-9.3-2.42-11.63,5.18"/><path id="mouth" class="cls-3" d="M1187.25,187.89a39.39,39.39,0,0,1-10.92,7.33s.57,10,12.08,6.7c7.13-2,6.2-8.33,4.45-12.82A3.45,3.45,0,0,0,1187.25,187.89Z"/></g><g id="hand_II" data-name="hand II"><path class="cls-4" d="M838.84,186.92c-18.34-8.27-20.92,1.25-15.58,6,6.67,5.88,38.58,22.56,38.58,22.56s-25.79-1.88-32.37,12.62.31,15.69,10.15,9.29,40.11,1.92,40.11,1.92l9.14,9s31.32,11.3,40.68-23.46a35.39,35.39,0,0,0-5.67-34.07c-3.62-4.4-16.21-22.87-59.42-34,0,0-20.32-2.85-5.25,7.51a88,88,0,0,0,11.91,6.8"/><path class="cls-4" d="M867.51,199.17c-6.41-3.08-33.3-11.54-39.62-19.07s1.85-12.06,24.77-1.45"/><path class="cls-4" d="M877.72,187.75c-.7-.93-44.8-14-41.82-20.26,2.45-5.14,8.8-6.63,33.16,2.64l19.54,8.6"/><path class="cls-3" d="M935.78,177.34c-7.74-3.4-16.41-3-24.66.52a69.26,69.26,0,0,1,12.76,12.88,35.39,35.39,0,0,1,5.67,34.07c-9.36,34.76-40.68,23.46-40.68,23.46l-9.14-9-1.19-.32c1.84,12.27,8.22,22.36,18.35,26.82,18.25,8,41.74-5.26,52.48-29.68S954,185.37,935.78,177.34Z"/></g><g id="graph"><path class="cls-4" d="M1298.19,464.5c-25.25.49-30.9-6.95-22.09-11.29a26.57,26.57,0,0,1,8.72-2c-15.81-1.08-14.1-9.6-7.81-11.6,8.47-2.71,44.4-5.13,44.4-5.13s-24.37-8.66-24.56-24.59,6.61-14.23,13-4.4c3.14,4.8,12.17,8.35,20.58,10.71l-.82-81.33-389.2,4,2.79,272.73,389.2.22-1.21-120.33a156.05,156.05,0,0,1-31.06-2.2s-19.75-5.57-1.78-9a88.27,88.27,0,0,1,13.48-1.42h-2.1c-26-1.32-31.24-5.23-31.41-10.93-.1-3.36,10.57-3.73,21.71-3.29"/><rect class="cls-3" x="1129.63" y="529.73" width="107.97" height="6"/><rect class="cls-3" x="1053.68" y="529.73" width="29.84" height="6"/><path class="cls-3" d="M1007.38,529.73H980a3,3,0,0,0,0,6h27.37"/><polygon class="cls-3" points="1237.54 490.83 1129.05 490.83 1129.92 496.83 1237.6 496.83 1237.54 490.83"/><path class="cls-3" d="M1082.65,490.83H980a3,3,0,0,0,0,6h103.51Z"/><path class="cls-3" d="M1305.58,529.73h-22v6h22a3,3,0,0,0,0-6Z"/><path class="cls-3" d="M1305.58,496.83a3,3,0,0,0,0-6h-22l.06,6Z"/><path class="cls-3" d="M1272.46,451.92H980a3,3,0,0,0,0,6h292.45a3,3,0,0,0,0-6Z"/><path class="cls-3" d="M1296.13,419H980a3,3,0,0,1,0-6h316.12a3,3,0,0,1,0,6Z"/><rect class="cls-2" x="1160.41" y="391.19" width="45.62" height="177.61" transform="translate(-4.85 12.12) rotate(-0.59)"/><polyline class="cls-4" points="1283.26 475.29 1284.17 568.55 1238.3 569.02 1237.19 455.15 1272.46 454.79"/><rect class="cls-4" x="1083.67" y="454.92" width="45.86" height="113.87" transform="translate(-5.18 11.34) rotate(-0.59)"/><polygon class="cls-4" points="1053.68 568.56 1008.07 569.02 1007.38 514.44 1053 513.98 1053.68 568.56"/><polyline class="cls-4" points="980.01 377.73 980.01 569.02 1305.58 569.02"/><g id="lines"><line class="cls-6" x1="1014.86" y1="580.33" x2="1041.67" y2="580.33"/><line class="cls-6" x1="1093.37" y1="580.33" x2="1120.18" y2="580.33"/><line class="cls-7" x1="1170.32" y1="580.33" x2="1197.13" y2="580.33"/><line class="cls-6" x1="1247.45" y1="580.33" x2="1274.26" y2="580.33"/><path class="cls-3" d="M966.57,422.69a3,3,0,0,1-3-3V415a3,3,0,0,1,6,0v4.65A3,3,0,0,1,966.57,422.69Z"/><path class="cls-3" d="M966.57,460.25a3,3,0,0,1-3-3v-4.66a3,3,0,0,1,6,0v4.66A3,3,0,0,1,966.57,460.25Z"/><path class="cls-3" d="M966.57,501.48a3,3,0,0,1-3-3v-4.65a3,3,0,0,1,6,0v4.65A3,3,0,0,1,966.57,501.48Z"/><path class="cls-3" d="M966.57,540.39a3,3,0,0,1-3-3v-4.66a3,3,0,0,1,6,0v4.66A3,3,0,0,1,966.57,540.39Z"/></g></g><g id="hand"><path class="cls-3" d="M1381.5,396.53c-14.08,0-26.42,9.23-33.28,23.07l11.15-4.24s33.21,2.26,27.79,37.85a35.38,35.38,0,0,1-18.91,28.9,81.44,81.44,0,0,1-7.51,3.61,33.64,33.64,0,0,0,20.76,7.4c21.55,0,39-21.62,39-48.3S1403.05,396.53,1381.5,396.53Z"/><path class="cls-4" d="M1288.87,451.37c-20.11.19-18.64-9.56-11.86-11.72,8.47-2.71,44.4-5.13,44.4-5.13s-24.37-8.66-24.56-24.59,6.61-14.23,13-4.4,37.49,14.39,37.49,14.39l12-4.56s33.21,2.26,27.79,37.85a35.38,35.38,0,0,1-18.91,28.9c-5.08,2.57-24,14.41-68.08,7.2,0,0-19.75-5.57-1.78-9A86.71,86.71,0,0,1,1312,478.9"/><path class="cls-4" d="M1320.05,451.7c-7.12.24-35.14-2.84-44,1.51s-3.16,11.78,22.09,11.29"/><path class="cls-4" d="M1324.8,466.27c-1,.57-46.65-5.24-46.44,1.7.17,5.7,5.39,9.61,31.41,10.93h21.35"/></g><polyline class="cls-4" points="1283.25 474.58 1284.17 568.55 1238.3 569.02 1237.19 455.15 1271.39 454.81"/></g><g id="woman"><g id="hand-2" data-name="hand"><path class="cls-4" d="M792.79,394.93c19.1-7.51,12.76-14.27,5.25-13.31-9.39,1.19-44.58,13.05-44.58,13.05s18.63-15.77,10.71-27.8-13.48-8.17-14.57,1.65S720,392.44,720,392.44l-11.81,3s-24.6,19.9-1,44.61a33.64,33.64,0,0,0,30.49,12.16c5.36-.78,25.66-2.33,63.63-24.5,0,0,15.83-11.69-2.88-7.42a105.48,105.48,0,0,0-13.62,4.12"/><path class="cls-4" d="M763.48,407.05c6.85-2.53,31.77-15.51,42.31-15.6s9,7.64-15.13,16.89"/><path class="cls-4" d="M766.4,419.78c1.25.05,41.43-21.68,44.77-16.38,2.73,4.34-.21,9.26-24.14,20.15l-20.18,8.13"/></g><g id="body"><path class="cls-3" d="M369.33,521.46l8.66,2.36a37.38,37.38,0,0,1-8.32-4.17Z"/><path class="cls-3" d="M728.94,442.59c0-40.18-4.52-77.85-74.08-71.27-2.18.37-4.19.81-6.06,1.3l-81.1,17.43-63-90.81a49.1,49.1,0,0,0-38.74-25l-20.9-1.76L447,252.85s-2.91,7.08-25.91,11.4C390,270.09,338.8,243,338.8,243v30.9c0,.36-38.5,2.34-56.18,13.38S257.43,319.86,245,350.14,193.17,487.8,192.24,495s-9.61,49.43,13.5,74.41C225.34,590.58,266,626,308.22,611.68l204.77-3c-11.91-28.7-16.57-65.36-17.92-101.05l-3.88-54.57a2.91,2.91,0,0,1,.11-1.06c13.43-45.24,9.31-74.23,3.48-90.59-6.26-17.56-15.77-24.67-15.86-24.74a3,3,0,0,1,3.51-4.86c.44.31,10.87,8,17.81,27.06,6.25,17.18,10.78,47.47-3,94.31l3.41,47.95c2.76,1.27,5.62,2.47,8.62,3.6,186.83,45,202-6.39,202-6.39h0C722.06,485,728.94,465,728.94,442.59ZM398,507a5.59,5.59,0,0,1,.32,1.83c0,5.83-4.63,10-13.51,15a7.41,7.41,0,0,1-5.29.43l.09,0c-1.37,5-9.6,7.31-9.6,7.31a9,9,0,0,1-4.41-.12c-7.52,4.87-15.79,4.89-23.94,2.22,7.27,11.9,7.1,17.52.88,15.9-6-1.57-19.56-17.76-26.23-26.12l-.29-.12L311,516.51c9.41-27.56,22.17-41.44,27.18-48,1.88.09,3.73.22,5.53.37-1.65-5.9-7.18-16.21-25.42-26.68-28.41-12.86-49.88,7.37-50.78,8.24a3,3,0,0,1-4.18-4.31c.24-.23,23.29-22.12,53.62-11l5.21-72.75a3,3,0,0,1,6,.43l-5.38,75c20.76,12.35,26,24.84,27.26,31.66,9.19,1.14,15.76,2.69,15.76,2.69s25.9,2,33.67,26.31C399.41,498.55,401.77,504.56,398,507Z"/><path class="cls-3" d="M379.59,492.29c-8.49-4.12-9.93,2.86-6.34,8l-.18.94a95.67,95.67,0,0,0,11.35,7.54,13.1,13.1,0,0,1,2.29-3.39C383.82,501.81,385.82,495.31,379.59,492.29Z"/></g><polyline id="neck-2" data-name="neck" class="cls-4" points="422.69 242.1 421.4 275.61 350.02 270.09 350.02 199.9"/><g id="head-2" data-name="head"><path id="face-2" data-name="face" class="cls-4" d="M446.82,97.6C417.06,77,390.24,69.44,348.26,123.24l-5.73,35.42c-17.64-5.32-26.94,3.29-23.1,18.67,4.13,16.57,13.74,24,29.71,19.7h0c7.66,17.39,22.13,37.33,49,43.16,42.14,9.13,51.88-16.95,56.57-27.2S476.57,118.21,446.82,97.6Z"/><g id="face-3" data-name="face"><polyline id="nose-2" data-name="nose" class="cls-4" points="432.77 162.47 436.41 194.18 424.57 193.88"/><ellipse id="eye_II-2" data-name="eye II" class="cls-3" cx="449.2" cy="161.76" rx="3.54" ry="5.47"/><ellipse id="eye-2" data-name="eye" class="cls-3" cx="415.14" cy="161.16" rx="3.54" ry="5.47"/><path id="brow-2" data-name="brow" class="cls-4" d="M444,130.54s9.81-2.55,12.27,5.47"/><path id="mouth-2" data-name="mouth" class="cls-4" d="M409.5,200.68s1.66,10.47,11.29,8.77"/></g><g id="hair-2" data-name="hair"><path class="cls-3" d="M291.6,59.57c-18.91-37-49.37-40.24-84.44-33.26s-54.7,54.17-55.93,58.55c-14.31,51,4.65,105.58,46.75,137.78,4.66,3.57,9.34,7.18,13.81,10.68,24.74,19.38-30.06,35.91-30.06,35.91,105,8.42,82.09-96.65,79.86-106C295.18,150.48,309.19,94,291.6,59.57Z"/><rect class="cls-2" x="285.57" y="65.71" width="33.31" height="98.57" rx="16.65" transform="translate(85.31 354.82) rotate(-68.7)"/></g><path class="cls-3" d="M476.29,133.78c-.37-25.75-6.56-48.32-22.12-63.24a29.87,29.87,0,0,0-8.74-6.9c-12.7-8.22-29.93-12.61-52.79-11.8a3.55,3.55,0,0,0-1.39.38,96.13,96.13,0,0,0-10.67,1.58,39.64,39.64,0,0,0-5.69,1.34,111.22,111.22,0,0,0-18.37,6.75C305.26,84,285.08,123.75,308,178.64c11.83,28.31,27.17,37.42,42,37.45V198.94c-1.27-2.73-3.35-1.67-3.35-1.67-16,4.32-23.11-3.37-27.24-19.94-2-8-.43-14.17,4-17.5l.34-.25.56-.35.35-.22.61-.32.36-.17c.22-.11.45-.2.68-.29l.33-.13.77-.26.24-.07a18.8,18.8,0,0,1,4.43-.67h1.5l1.16.06.25,0,1.24.13.18,0a38.71,38.71,0,0,1,6.09,1.34h0c1.37.41.37,1.05,1.84,1.63l3.69-.25c1.27,0,2.57-.13,3.93-.29,32.37-3.9,82.65-27.05,100.56-56.8,12.64,15.32,14,45.53,11.7,71C471.85,162.13,476.5,148.54,476.29,133.78Zm-59.25-9a3,3,0,0,1-3.41,2.52,13.15,13.15,0,0,0-12.45,4.78,3,3,0,1,1-4.92-3.43,19.17,19.17,0,0,1,18.25-7.29A3,3,0,0,1,417,124.82Z"/></g></g><g id="graph_and_hand" data-name="graph and hand"><path class="cls-4" d="M398.74,506.39c2.69-2.69.67-7.84.67-7.84-7.77-24.34-33.67-26.31-33.67-26.31a170.86,170.86,0,0,0-27.61-3.72c-5,6.55-17.77,20.43-27.18,48l5.05,6.82"/><path class="cls-4" d="M373.25,500.34c-3.59-5.19-2.15-12.17,6.34-8,5.77,2.8,4.47,8.59,6.55,12.3"/><g id="graph-2" data-name="graph"><path class="cls-8" d="M831.29,391.63c-124.87,98.64-201,36.73-259,45.47s-66.88,37.56-119.33,58.16c-15.61,6.14-35.74,8.9-54.64,9.74-5,18.82-21.38,28.48-31.68,26.8l-17.07,10.29-.87,42.76L831.29,588Z"/><line class="cls-1" x1="855.27" y1="584.85" x2="348.68" y2="584.85"/><g id="dashed_lines" data-name="dashed lines"><line class="cls-1" x1="419.38" y1="503.87" x2="419.38" y2="509.87"/><line class="cls-9" x1="419.38" y1="523.66" x2="419.38" y2="571.96"/><line class="cls-1" x1="419.38" y1="578.85" x2="419.38" y2="584.85"/><line class="cls-1" x1="572.27" y1="438.44" x2="572.27" y2="444.44"/><line class="cls-10" x1="572.27" y1="456.66" x2="572.27" y2="572.74"/><line class="cls-1" x1="572.27" y1="578.85" x2="572.27" y2="584.85"/><line class="cls-1" x1="721.87" y1="444.83" x2="721.87" y2="450.83"/><line class="cls-11" x1="721.87" y1="462.47" x2="721.87" y2="573.04"/><line class="cls-1" x1="721.87" y1="578.85" x2="721.87" y2="584.85"/></g></g><path id="main_line" data-name="main line" class="cls-1" d="M398.83,505.3a151.12,151.12,0,0,0,54.11-10c52.45-20.6,61.27-49.42,119.33-58.16s134.15,53.17,259-45.47"/><path id="main_line-2" data-name="main line" class="cls-1" d="M376.91,504.11c3.57.41,5.75.75,9.8,1"/><g id="elipse"><circle class="cls-2" cx="721.87" cy="444.83" r="6.72"/><circle class="cls-2" cx="572.27" cy="437.83" r="6.72"/><circle class="cls-2" cx="419.38" cy="503.87" r="6.72"/></g><g id="fingers"><path class="cls-4" d="M352.51,505.77s23.4,23,32.28,18,13.51-9.15,13.51-15-9.25-9.62-13.88,0c0,0-16-8.88-17.63-14.8"/><path class="cls-4" d="M339.28,513.26s21.09,20.9,30.71,18.31c0,0,8.23-2.27,9.6-7.31"/><path class="cls-4" d="M312.42,518.49s21.91,29,30.1,31.08,5.91-8.26-10-29"/></g></g><line id="line-2" data-name="line" class="cls-12" x1="3.5" y1="611.84" x2="1587.13" y2="611.84"/></g></g></svg>