<svg xmlns="http://www.w3.org/2000/svg" viewBox="0 0 1693 791.47"><defs><style>.cls-1,.cls-5,.cls-7{fill:none;}.cls-1,.cls-3,.cls-5,.cls-6{stroke:#111;}.cls-1,.cls-3,.cls-5,.cls-6,.cls-7{stroke-linecap:round;stroke-linejoin:round;}.cls-1,.cls-3,.cls-6,.cls-7{stroke-width:6px;}.cls-2,.cls-6{fill:#6d6d6d;}.cls-3{fill:#fff;}.cls-4{fill:#111;}.cls-5{stroke-width:8px;}.cls-7{stroke:#6d6d6d;}</style></defs><g id="Layer_2" data-name="Layer 2"><g id="outline_III" data-name="outline III"><g id="not_found" data-name="not found"><g id="folders_BG" data-name="folders BG"><path id="shape" class="cls-1" d="M374.92,714.11s-9.05-24.79-20.64-57h-.51v-1.43c-10.73-29.81-23.53-65.65-33.31-94v95.12h-39v-135h25.7c-1-3.21-1.64-5.65-1.95-7.17-1.65-8,.3-13,3.16-17.21H195.07v290H411.46v-5.52C387.23,770.35,380.32,728.68,374.92,714.11Zm-126-57h-39v-135h39Z"/><g id="rectangles"><rect class="cls-2" x="294.66" y="654.34" width="12.64" height="38.96" transform="translate(974.79 372.84) rotate(90)"/><polygon class="cls-2" points="353.77 680.43 353.77 667.79 357.47 667.79 360.94 680.43 353.77 680.43"/><rect class="cls-2" x="223.1" y="654.63" width="12.64" height="38.96" transform="translate(903.54 444.69) rotate(90)"/></g><g id="circles"><circle class="cls-1" cx="300.23" cy="737.29" r="13.68"/><path class="cls-1" d="M383.69,745.47A13.68,13.68,0,1,1,377.83,725"/><circle class="cls-1" cx="228.68" cy="737.59" r="13.68"/></g><g id="lines"><polyline class="cls-1" points="320.46 563.13 320.46 656.85 281.5 656.85 281.5 521.82 306.18 521.82"/><line class="cls-3" x1="317.8" y1="553.94" x2="285.24" y2="553.94"/><line class="cls-3" x1="317.8" y1="568.81" x2="285.24" y2="568.81"/><line class="cls-3" x1="317.8" y1="583.68" x2="285.24" y2="583.68"/><rect class="cls-1" x="161.91" y="570.15" width="135.02" height="38.96" transform="translate(819.06 360.21) rotate(90)"/><line class="cls-1" x1="246.28" y1="616.1" x2="212.76" y2="616.1"/><line class="cls-1" x1="246.28" y1="539.37" x2="212.76" y2="539.37"/><line class="cls-1" x1="246.28" y1="630.97" x2="212.76" y2="630.97"/><line class="cls-1" x1="246.28" y1="645.84" x2="212.76" y2="645.84"/></g></g><g id="man"><g id="hands"><g id="hand_II" data-name="hand II"><path class="cls-1" d="M345.49,386.13a46.57,46.57,0,0,0-7.92-14C325.15,357,325,347.39,318,340.14s-18.11-3.94-8.11,20.65q2.37,5.82,4.31,10.57"/><path class="cls-1" d="M294,369.6c10.18.15,44,2.7,62.58,30.43"/><path class="cls-1" d="M294.56,391.34c21.5-4.54,75.2-9.28,85.74,53"/><path class="cls-1" d="M327.72,463c-2.93-10.19-6.39-19.85-10.16-25.74-11.06-17.28-35.76-16-35.76-16S219,365.57,209.91,355.51s-5.61-19.65,10.64-8.47c8.39,5.77,25.48,18,40,28.51"/><path class="cls-1" d="M280.73,418.78s-32.25-71.65-37.08-85.15,1.7-20.62,12.67-2.71c4.76,7.78,12.17,20,19,31.37"/><path class="cls-1" d="M277.68,413.05s-2.57-61.46-2.56-73.37c0-19.63,11.79-25.21,14.83,1.25,2,17.67,4.27,50.24,4.27,50.24"/></g><g id="hand"><path class="cls-1" d="M1206.34,387.26a46.94,46.94,0,0,1,8.31-15.11c12.43-15.14,12.56-24.76,19.59-32s18.1-3.94,8.1,20.65q-2.53,6.27-4.6,11.3"/><path class="cls-1" d="M1259.07,369.59c-8.89,0-43.36,1.84-62.66,29.33"/><path class="cls-1" d="M1257.43,391.29c-21.65-4.52-75-9-85.51,53"/><path class="cls-1" d="M1225.24,460.44c2.77-9.23,6-17.8,9.42-23.2,11.06-17.28,35.76-16,35.76-16s62.78-55.68,71.89-65.74,5.61-19.65-10.64-8.47c-8.61,5.92-26.37,18.66-41.16,29.32"/><path class="cls-1" d="M1271.49,418.78s32.25-71.65,37.08-85.15-1.7-20.62-12.66-2.71c-4.86,7.92-12.46,20.47-19.42,32"/><path class="cls-1" d="M1276.48,363.06c.36-10.47.63-19.52.62-23.38,0-19.63-11.79-25.21-14.83,1.25-2,17.67-4.26,50.24-4.26,50.24"/><path class="cls-1" d="M1274.54,413.05s1.18-28.1,1.94-50"/></g></g><g id="hoodie"><path id="hoodie-2" data-name="hoodie" class="cls-1" d="M640.28,309.85C590.66,334.64,575,373.51,580.21,414h-.48s-65.26-.87-101.82,107.74c-10.71-25.2-21.58-49.86-26.25-57.58-10.63-17.52-46.92-9.65-56.4-21.82s-12.84-16-12.84-16S354.22,460,319,456.23c0,0-2,6.06-.66,21.36s-17.27,17.05-13.12,37.06,69.67,199.46,69.67,199.46c6.18,16.68,14.34,68.87,48.2,70.73a1.35,1.35,0,0,0,1.18.87c53.69-.15,710.21.4,710.21.4s.06-.71.13-2.05c29.25-6.9,36.83-54.22,42.66-69.95,0,0,65.53-179.45,69.67-199.46s-14.44-21.76-13.11-37.06-.67-21.36-.67-21.36c-35.18,3.72-63.39-29.88-63.39-29.88s-3.36,3.8-12.83,16-27.45-1.58-38.07,15.94c-8.58,14.16-39,88.37-50.37,116.32C1034,472,989.61,419.86,917.19,406.74c-4.75-28.78-17.42-61.45-49.49-85.19"/><path id="welt" class="cls-4" d="M1232.36,475.35c2.51-16,1.21-22.16,1.21-22.16-32.14,6.95-61.84-29.59-61.84-29.59s-3.37,4.24-13,17.72a19.27,19.27,0,0,1-11.78,8.1c13.34,43.42,71.43,49,93.21,49.52C1238.54,489.47,1230.46,487.5,1232.36,475.35Z"/><path id="welt-2" data-name="welt" class="cls-4" d="M317.94,475.27c-2.51-16,.71-22.08.71-22.08,32.15,6.95,61.85-29.59,61.85-29.59s4.84.54,14.45,14c3.87,5.43,10.52,10,14.53,11.11-13.34,43.41-80.15,49.3-101.93,49.83C309.19,489.1,319.84,487.43,317.94,475.27Z"/><path id="shape-2" data-name="shape" class="cls-4" d="M582.58,412c-19.54,4-42.53,12.9-60.44,32.77,16.67,24.12,77.62,107.52,185,125a11,11,0,0,0-.48-2.19C647.13,543.09,588.87,475.19,582.58,412Z"/><path id="shape_II" data-name="shape II" class="cls-4" d="M913.23,400.91c3.72,22.22,2.7,42.17,2.2,53.95-1.65,38.94-15.94,65.83-26.92,85.21L886.41,554c45.35-10.69,83.05-83,89.12-124.38C959.43,420.85,952.67,408.89,913.23,400.91Z"/><g id="lines-2" data-name="lines"><path class="cls-5" d="M705.9,541.77S749,616.13,753.47,663.1"/><path class="cls-5" d="M880.55,539.92s-18.2,73.17-13.27,120.1"/><line class="cls-1" x1="476.75" y1="517.8" x2="523.49" y2="627.2"/><line class="cls-6" x1="1070.1" y1="571.58" x2="1038.25" y2="633.81"/><path class="cls-1" d="M616.59,707s-4,81.42-46.56,79.52"/></g><path id="shirt" class="cls-4" d="M854.66,573c22.89-67.74,14-152.75-1.46-165.07-3.11-2.47-12.46-4.35-25.42-5.78-5.42-.59-9.66,3.35-9.66,3.35l19.22,3c-8.57,82.12-45.22,108-45.22,108C732.39,447.51,665.6,401.26,665.6,401.26l4.8-3.31L667,398l-30.69,10.57S753.16,517.13,787.76,715.22c5.43,31.06,9.1,55.47,11.54,74.62l59.17-3.47C849.6,717.64,840.16,616,854.66,573Z"/></g><path id="neck" class="cls-1" d="M692.6,357.29l-1.5,26.39-25.5,17.58s66.79,46.25,126.52,115.33c0,0,36.65-25.91,45.22-108l-19.22-3"/><g id="head"><path id="ear" class="cls-1" d="M659.43,262.44c-10.33,2.94-31.58,12.41-23,39.36,7.43,23.33,28.16,19.69,41.23,14.63"/><path id="face" class="cls-3" d="M854.28,165.48c9.91,40.12,12.79,84,12.66,117.89"/><path id="beard" class="cls-1" d="M680.73,252.69c7.28,5.89,29.16,42.25,35.48,59.66,0,0,41.57-20.17,103.48-28.42,0,0,33.9-3.29,47.85-.75,0,0,4.33,63.79-19.32,99.88s-82.68,33.75-112.13,17.2-35-25.42-43.72-45.81S658,257.23,658,257.23Z"/><path id="hair" class="cls-4" d="M664.65,268.31s-21.85-27.05-32.42-56.57c-10-27.75-.26-59.18,24.29-75,20.54-13.23,37.62-6.71,37.62-6.71s-27.58-37.26,3.09-76.57a63.18,63.18,0,0,1,44.24-24.16c42.43-3.65,59.59,31.17,59.59,31.17S836.83-29.32,935.28,9.93c9.93,4,22.05,16.8,28.17,25.68,37.12,53.86-56.27,133.62-108.26,145.12-57.1,12.62-92,6.82-112.22-5.38C757.76,182.19,752.08,271.84,664.65,268.31Z"/><polyline id="nose" class="cls-5" points="814.52 243.94 827.08 298.48 810.93 302.15"/><ellipse id="eye_II" data-name="eye II" class="cls-4" cx="834.96" cy="257.1" rx="5.61" ry="8.82" transform="translate(-23.39 94.34) rotate(-6.38)"/><ellipse id="eye" class="cls-4" cx="781.65" cy="260.65" rx="5.61" ry="8.82" transform="translate(-24.12 88.44) rotate(-6.38)"/><path id="brow_II" data-name="brow II" class="cls-5" d="M761.88,246.41s22.81-1.36,22.52-16.6"/><path id="brow" class="cls-5" d="M827.53,208s15-5.91,20.32,6.47"/><path id="mouth" class="cls-1" d="M809.57,326.47a106.26,106.26,0,0,1-24.29,1.61c-5-.21-8.79,2.88-7.31,6,2.59,5.48,8.78,12,23.48,10.29,14.48-1.72,17.37-8.41,17.34-13.56C818.77,327.71,814.1,325.58,809.57,326.47Z"/></g></g><g id="folders"><g id="shape-3" data-name="shape"><path class="cls-4" d="M943.07,662.47a10.68,10.68,0,1,0,10.68,10.68A10.69,10.69,0,0,0,943.07,662.47Z"/><path class="cls-4" d="M908.68,737.6h0a10.68,10.68,0,0,0,0,21.36h.05a10.68,10.68,0,0,0-.05-21.36Z"/><path id="shape-4" data-name="shape" class="cls-4" d="M1183.22,639.54h-290v72.57L840,713l.35,72.57,307.35-1.46-.35-72h35.9ZM920.53,760A16.56,16.56,0,0,1,908.76,765h-.08a16.68,16.68,0,0,1-.08-33.36h.08A16.68,16.68,0,0,1,920.53,760Zm22.54-70.19a16.68,16.68,0,1,1,16.68-16.68A16.7,16.7,0,0,1,943.07,689.83Zm46.51,76.51-.19-39,12.64-.06.18,39Zm15.65-111.93h12.64v39h-12.64Zm2.64,111.84-.19-39,135-.64.19,39Zm150.67-72.88h-135v-39h135Z"/></g><g id="lines-3" data-name="lines"><line class="cls-7" x1="1110.75" y1="761.3" x2="1110.61" y2="732.35"/><line class="cls-7" x1="1095.88" y1="761.37" x2="1095.74" y2="732.42"/><line class="cls-7" x1="1081.01" y1="761.44" x2="1080.87" y2="732.49"/><line class="cls-7" x1="1064.56" y1="688.47" x2="1064.56" y2="659.52"/><line class="cls-7" x1="1141.29" y1="688.47" x2="1141.29" y2="659.52"/><line class="cls-7" x1="1049.69" y1="688.47" x2="1049.69" y2="659.52"/><line class="cls-7" x1="1034.82" y1="688.47" x2="1034.82" y2="659.52"/></g></g><g id="pile_of_files" data-name="pile of files"><rect class="cls-2" x="1128.4" y="533.7" width="359.15" height="253.32"/><path class="cls-6" d="M1329.91,534.28V788.47"/><line class="cls-6" x1="1281.56" y1="561.76" x2="1444.07" y2="561.76"/><line class="cls-6" x1="1379.88" y1="652.77" x2="1484.29" y2="652.77"/><line class="cls-6" x1="1265.31" y1="737.68" x2="1468.86" y2="737.68"/><line class="cls-6" x1="1293.75" y1="630.02" x2="1188.53" y2="630.02"/><line class="cls-6" x1="1128.8" y1="590.2" x2="1192.59" y2="590.2"/><line class="cls-6" x1="1128.4" y1="707.21" x2="1253.12" y2="707.21"/><path class="cls-6" d="M1127.86,590.6c-26.82,10.56.81,28.23.81,28.23s6.91-20,42.25-28.15Z"/><path class="cls-6" d="M1488.6,652.35c26.81,10.56-.82,28.24-.82,28.24s-6.9-20-42.25-28.16Z"/><path class="cls-6" d="M1222.66,707.39s-62.23,11.74-60.69,48.35c0,0-49.88-18.3-33-48.35Z"/></g><line id="line" class="cls-5" x1="4" y1="786.71" x2="1689" y2="786.71"/></g></g></g></svg>