<svg xmlns="http://www.w3.org/2000/svg" viewBox="0 0 1508.85 892.54"><defs><style>.cls-1,.cls-3,.cls-5{fill:none;stroke-linecap:round;stroke-linejoin:round;stroke-width:6px;}.cls-1{stroke:#111;}.cls-2{fill:#111;}.cls-3{stroke:#6d6d6d;}.cls-4{fill:#6d6d6d;}.cls-5{stroke:#fff;}</style></defs><g id="Layer_2" data-name="Layer 2"><g id="outline_II" data-name="outline II"><g id="_not_found" data-name=" not found"><g id="flower"><g id="leaves"><g id="leaf_IV" data-name="leaf IV"><path class="cls-1" d="M312.06,355.37c-42.87-40.12-53-39.28-64-96.46-13.89-72.62-87.59-102-124.74-59.84s7.51,122.76,21.86,140.37c11,13.5,6,80.25,24.12,144.48"/><path class="cls-1" d="M159.8,229.55s92.81,147.38,163.31,305"/></g><g id="leaf_III" data-name="leaf III"><path class="cls-1" d="M553.23,392.36c4.3-10.93,6.71-22.36,5.74-34.74-3.89-49.78-97.38-86-76.71-143.31s24.05-117.1-43.57-123.55c-78.13-7.46-94.26,71.67-96.78,138.67s9.93,91.07-28.2,126.74,23.92,83.9,18.64,119.25c-2.22,14.84-10,40.11-7.68,79.95"/><path class="cls-1" d="M408.36,120.25s-71,214.3-19.62,528.65"/></g><g id="leaf_II" data-name="leaf II"><path class="cls-1" d="M409,692.38c-32.13-71.94-83-162.43-154.6-186.45-94.56-31.72-95-11.2-135.25-58.59S13.31,408.71,3.91,454.72s56.45,86.64,74.17,93.64,53.4,91.51,118.53,127.14S293.92,641,318.69,690c.52.85,1.05,1.69,1.57,2.52"/><path class="cls-1" d="M38.26,450.79S276.83,553.47,373.37,692.23"/></g><g id="leaf"><path class="cls-1" d="M610,602.7c-.13.15-.26.31-.4.46-52.25,60.24-110.89,1.71-117.52,60.25a243.59,243.59,0,0,1-7.49,29"/><path class="cls-1" d="M569.94,396c14-10.63,21.51-21.62,32.39-51.59,22.78-62.77,92.07-78.48,118.75-35.66s-24.42,108.37-39.64,122c-7.79,7-12.73,36.21-22.69,71.14"/><path class="cls-1" d="M403.69,678.8c7-81,26.32-177.91,84.35-224.79,7.86-6.34,15-11.91,21.64-16.83"/><path class="cls-1" d="M561.12,459.34c-37.65,49.42-75.65,107.27-100.95,165.93"/><path class="cls-1" d="M685.8,317.84S648,353.9,601.47,409.07"/></g></g><path id="pot" class="cls-1" d="M431,692.8H294.76c-13.56,0-23.63,12.28-20.67,25.21l38.12,170.66"/></g><g id="folders"><path id="shape" class="cls-2" d="M810.27,646.72V768.63H773.8V689.28a229.16,229.16,0,0,1-31,27.43v51.64H706.28V734.58c-11.5,2.75-21.66,2.13-30.5-.83v34.88H639.32V702.84a35.23,35.23,0,0,1-2.59-7l-21.46-76.67h-192v271.4H827.8V625.4Q819.6,635.41,810.27,646.72ZM473.65,768.63H437.19V642.26h36.46Zm67-.28H504.16V642h36.46Zm67.65.28H571.8V642.26h36.47Z"/><g id="lines"><line class="cls-3" x1="536.45" y1="672.04" x2="509.35" y2="672.04"/><line class="cls-3" x1="536.45" y1="685.96" x2="509.35" y2="685.96"/><line class="cls-3" x1="536.45" y1="699.88" x2="509.35" y2="699.88"/><line class="cls-3" x1="603.67" y1="730.22" x2="576.58" y2="730.22"/><line class="cls-3" x1="603.67" y1="658.4" x2="576.58" y2="658.4"/><line class="cls-3" x1="603.67" y1="744.14" x2="576.58" y2="744.14"/><line class="cls-3" x1="603.67" y1="758.06" x2="576.58" y2="758.06"/><line class="cls-3" x1="805.67" y1="730.22" x2="778.58" y2="730.22"/><line class="cls-3" x1="805.67" y1="744.14" x2="778.58" y2="744.14"/><line class="cls-3" x1="805.67" y1="758.06" x2="778.58" y2="758.06"/><line class="cls-3" x1="469.06" y1="730.22" x2="441.97" y2="730.22"/><line class="cls-3" x1="469.06" y1="658.4" x2="441.97" y2="658.4"/><line class="cls-3" x1="469.06" y1="744.14" x2="441.97" y2="744.14"/><line class="cls-3" x1="469.06" y1="758.06" x2="441.97" y2="758.06"/><line class="cls-3" x1="671.19" y1="730.22" x2="644.09" y2="730.22"/><line class="cls-3" x1="671.19" y1="744.14" x2="644.09" y2="744.14"/><line class="cls-3" x1="671.19" y1="758.06" x2="644.09" y2="758.06"/></g><g id="rectangles"><rect class="cls-4" x="516.48" y="761.33" width="11.83" height="36.47" transform="translate(1301.95 257.17) rotate(90)"/><rect class="cls-4" x="584.12" y="761.6" width="11.83" height="36.47" transform="translate(1369.87 189.8) rotate(90)"/><rect class="cls-4" x="786.12" y="761.6" width="11.83" height="36.47" transform="translate(1571.87 -12.2) rotate(90)"/><rect class="cls-4" x="449.51" y="761.6" width="11.83" height="36.47" transform="translate(1235.26 324.42) rotate(90)"/><rect class="cls-4" x="651.63" y="761.6" width="11.83" height="36.47" transform="translate(1437.39 122.29) rotate(90)"/><rect class="cls-4" x="718.6" y="761.33" width="11.83" height="36.47" transform="translate(1504.08 55.04) rotate(90)"/></g><g id="circles"><circle class="cls-5" cx="521.7" cy="843.65" r="12.8"/><circle class="cls-5" cx="589.34" cy="843.93" r="12.8"/><circle class="cls-5" cx="791.34" cy="843.93" r="12.8"/><circle class="cls-5" cx="454.73" cy="843.93" r="12.8"/><circle class="cls-5" cx="656.85" cy="843.93" r="12.8"/><circle class="cls-5" cx="723.82" cy="843.65" r="12.8"/></g></g><g id="woman"><g id="arm"><path class="cls-1" d="M1333.09,391.68s40.05-15.31,61.16-40c12.58-14.75,28.65-34.57,27.73-40.4-.73-4.66-5-3.82-10-1.12"/><path class="cls-1" d="M1356.94,355.19s16.84-15.59,24.56-29.32,14-22.69,11.66-24.71-13.92-2-19.46,6.14c-6.33,13.88-28.92,32.49-28.92,32.49,2.83-1,17.74-15.87,24.66-25.25s8-24.47-12.82-8.59c0,0-22,17.71-30.45,22.89,0,0-37.54,12-47.54,27.18h0c-6.73,10.25-44.56,105.28-68.51,166.17-32.36-30.52-63.18-59.9-63.18-59.9L991.56,495.54s8.4,11,133.29,131.26c63,60.71,104.56,65,129.67,48.73,13.94-6.74,26.78-25.07,28.47-38.77l38.79-241.52c22.75-8.11,38.34-17.21,48.45-25.4,13.09-10.61,43.91-61.22,43.86-66.21-.12-13.31-19-2.82-31.39,20.72"/><path class="cls-1" d="M1210.12,522.19s-37.75,64.37-16.24,98.92"/></g><g id="arm_II" data-name="arm II"><path class="cls-1" d="M559.15,458s-41.53-10.67-65.31-32.85c-14.18-13.22-32.39-31.1-32.14-37,.2-4.62,4.42-4.38,9.53-2.37"/><path class="cls-1" d="M531.31,424.47s-18.5-13.58-27.73-26.35-16.43-21-14.38-23.22,13.6-3.52,20,3.89c7.86,13.07,32.41,29,32.41,29-2.92-.63-19.42-13.75-27.36-22.28s-10.73-23.41,11.76-10c0,0,23.9,15.09,32.85,19.29,0,0,38.66,7.63,50.32,21.61h0c7.85,9.42,56.21,99.54,86.92,157.32,28.69-34,56-66.68,56-66.68l158.15,15.4S903.16,534.34,792.72,668c-55.75,67.46-96.51,76.41-123.3,63.13C654.8,726,640,709.25,636.73,695.82L570.79,460.27c-23.53-5.48-40-12.75-51-19.74-14.2-9-50.57-55.84-51.09-60.81-1.38-13.23,18.58-5,33.55,17"/><path class="cls-1" d="M696.13,573.73S741,633.4,723.49,670.17"/></g><path id="shirt" class="cls-2" d="M1196.59,504.92s-66.82-73.31-118.1-88.95c-17.75-5.42-51.86-5.34-90.26-2.26l.29,1.39,28-1.31c-8.69,36.08-44.33,76.93-107.57,83.45s-59-58.14-50.42-63.45L879,428.57l0-.33c-30,5.48-55.1,11.43-68.21,16.41-43.46,16.52-84.32,87.8-84.32,87.8l51.48,63.24s-1.54-1.7-2.06,41.36,37.07,75.08,37.07,75.08L790.53,891l350.39-2.45-42.25-276.39Z"/><path id="neck" class="cls-1" d="M876.36,398.47l2.63,30.1-20.43,5.22c-8.59,5.31-12.82,70,50.42,63.45s98.88-47.37,107.57-83.45l-28,1.31-17.25-82.45"/><g id="head"><path id="ear" class="cls-1" d="M979.89,302.1s50.56,5.92,47.71-40.44c-1.9-31-29-33-46.76-31"/><path id="face" class="cls-1" d="M790.73,280.82c1.62,21.14,20.15,117.29,87.94,116.6S984.58,330.48,984.16,267s-34.59-112.39-77.53-112.94S779,127.74,790.73,280.82Z"/><g id="hair"><rect class="cls-4" x="972.79" y="73.08" width="24.35" height="42.86" transform="translate(85.82 -318.56) rotate(19.19)"/><circle class="cls-2" cx="1005.64" cy="42.88" r="42.87"/><path id="hair-2" data-name="hair" class="cls-2" d="M968.3,97.41c-38.12-12.08-79-17.66-115-3.36-109.06,49.31-109.35,131.56-63.49,169h0c-1.74-58.27,12.49-86.53,32.52-99.83,21.88,34.88,92.57,65.08,157.3,65.81.14.58.26,1.17.39,1.75,17.75-2.22,45.68-.62,47.61,30.85,2.67,43.42-41.5,41-47.12,40.5-.75,3.43-9.8,34.48-9.8,34.48l9.78,44.53,144-22.38a12.91,12.91,0,0,0,11.94-17C1119,290.23,1090.81,138,968.3,97.41Z"/></g><path id="mouth" class="cls-1" d="M855.29,338.71c0,7.48,27.51,17.52,32.7-9.22C888,329.49,855.31,331.24,855.29,338.71Z"/><polyline id="nose" class="cls-1" points="859.3 308.69 839.16 311.13 843.35 230.05"/><path id="brow" class="cls-1" d="M812.19,238s-15.57-6.22-21.53,5.85"/><path id="brow_II" data-name="brow II" class="cls-1" d="M905.14,242.37S880.56,246,877.54,230"/><ellipse id="eye_II" data-name="eye II" class="cls-2" cx="893.77" cy="259.5" rx="6.73" ry="10.4" transform="translate(-29.29 140.62) rotate(-8.85)"/><ellipse id="eye" class="cls-2" cx="819.29" cy="272.85" rx="6.73" ry="10.4" transform="translate(-32.23 129.31) rotate(-8.85)"/><g id="galsses"><ellipse class="cls-3" cx="906.1" cy="245.61" rx="42.7" ry="56.29" transform="translate(-26.57 138.52) rotate(-8.62)"/><ellipse class="cls-3" cx="790.63" cy="266.16" rx="42.7" ry="56.29" transform="translate(-30.95 121.45) rotate(-8.62)"/><line class="cls-3" x1="831.04" y1="251.68" x2="862.69" y2="246.2"/><line class="cls-3" x1="948.05" y1="228.16" x2="988.09" y2="230.72"/></g></g></g><line id="line" class="cls-1" x1="4.57" y1="889.54" x2="1505.85" y2="889.54"/></g></g></g></svg>