<svg xmlns="http://www.w3.org/2000/svg" viewBox="0 0 1225.07 709.26"><defs><style>.cls-1{fill:none;stroke:#111;stroke-linecap:round;stroke-linejoin:round;stroke-width:6px;}.cls-2{fill:#111;}</style></defs><g id="Layer_2" data-name="Layer 2"><g id="outline"><g id="support"><g id="suculent"><path id="succulent" class="cls-1" d="M461,469.75a13.69,13.69,0,0,0-1.86-1.19c-9.62-5.15-17.78-2.67-26.84,6.87,4.14-23.17,4-51.27-14.37-56-18.92-4.89-29.64,6.89-40.73,35.36.42-24.43-4.41-55.94-24.64-57.22-22.75-1.44-30.27,17.27-35.92,58.77-7.07-23.21-26.6-63.86-49.55-55.8-22.5,7.89-21.05,29.58-8.55,73.8-12.33-19.09-37-47.47-53.51-36.68-15.71,10.24-11.41,26.93,6,57.94-11.49-5-23.44-5.49-33,3.95-10.73,10.6-13.51,20.92-9.89,33.25"/><path id="pot" class="cls-1" d="M394.53,531.54l-221.52.7c-15.33,3-25.73,18.18-23.23,34.27l21.53,138.78"/></g><g id="woman"><g id="body"><path id="clothing" class="cls-1" d="M639.63,384a579.33,579.33,0,0,0-75.24,22.44c-66.07,24.45-149.82,103.17-203.52,159-70,5.26-123.81,52.91-120.58,107.42a80,80,0,0,0,9.6,33.42"/><path id="clothing-2" data-name="clothing" class="cls-1" d="M964.93,486.65a115.35,115.35,0,0,0-46.32-4c-23.88-33-51.29-61-80.09-78.78-32.27-19.88-69.73-28.75-109.6-29.58"/><path id="clothing-3" data-name="clothing" class="cls-1" d="M1028.55,705.93c17.86-23.67,28.59-54,28.59-87.12a147.39,147.39,0,0,0-11.89-58.34"/><g id="clothing_lines" data-name="clothing lines"><path class="cls-2" d="M845.38,408.29C756.72,463.24,677,464.45,625.47,455.61c-47.82-8.2-82.26-26.65-93.53-33.82q-2.87,1.62-5.75,3.32c9.19,6.33,45.19,27.11,97.19,36.22a296.5,296.5,0,0,0,51.28,4.47,300.82,300.82,0,0,0,52.41-4.63c42-7.46,83.63-24,123.63-49.15Q848,410.1,845.38,408.29Z"/><path class="cls-2" d="M836.19,502.88c14.1-19.8,31.54-30.93,51.85-33.09a65.54,65.54,0,0,1,22,1.37q-2.81-3.63-5.68-7.15a72.18,72.18,0,0,0-16.62-.22c-15.27,1.56-37.45,9-56.4,35.61a3,3,0,0,0,.71,4.18,3,3,0,0,0,1.74.56A3,3,0,0,0,836.19,502.88Z"/><path class="cls-2" d="M838.27,576.16h.06a3,3,0,0,0,3-2.95c.17-8.82,3.73-28.77,16-47.58,14.24-21.85,35.19-35.32,62.24-40.09-1.31-1.8-2.63-3.6-4-5.38-27,5.5-48.85,20-63.3,42.19-12.15,18.65-16.73,39-17,50.75A3,3,0,0,0,838.27,576.16Z"/><path class="cls-2" d="M413.58,543.59a144,144,0,0,0-33.87,2.6q-4.53,4.54-8.87,9c11.09-6.09,74.29-13.68,100.39,16a3,3,0,0,0,2.25,1,3,3,0,0,0,2-.75,3,3,0,0,0,.27-4.23C458.94,548.08,429.58,544.21,413.58,543.59Z"/><path class="cls-2" d="M358.88,565.6l.17,0-.25,0Z"/><path class="cls-2" d="M464,589.54c-35.34-26.66-79.29-28.25-97.93-27.54l-6.2,6.41c10.68-.87,61.85-3.26,100.51,25.92a3,3,0,1,0,3.62-4.79Z"/></g><path id="hand" class="cls-1" d="M312.54,705.29s32.77-97,125.07-79.39c18.93,3.61,39.28,8.07,59.69,12.88"/><g id="hand_II" data-name="hand II"><path class="cls-1" d="M1045.77,288.24c15.8-55.31,28.74-67.66,36.19-62.28,6.75,4.88-7,40.12-11,58.41"/><path id="hand_II-2" data-name="hand II" class="cls-1" d="M1115.5,276.19c7.92-12.86,21-12.22,14.17,9.7-6.66,21.37-11.6,49.24-24.1,61.83s-17,18.23-17,18.23-25,93.3-39.19,170.87C1028.84,649,990.11,670.58,953.9,657.73S911,594.17,960.45,495.6s75.52-156,75.52-156"/><path class="cls-1" d="M1036.8,341.37c-7.17-4.85-6.31-33.06-14.36-45.35-10-15.32-19.78-31.2-1.27-28.82,15.87,2.05,20.92,16,24.6,21"/><path class="cls-1" d="M1106.25,299.65s14.06-34.25,18.78-50.09c5.17-17.34-13-19.78-21.76,5.05"/><path class="cls-1" d="M1089.74,290.66s27.68-62.72,15.3-68.3c-11.29-5.09-19.9,17.79-34.11,62"/></g></g><g id="head"><path id="neck" class="cls-1" d="M638,354.43l2.88,52.49s-6.57,38.16,46.44,31.09c52.8-7.05,46.32-38.31,46.32-38.31l-12.83-69"/><path id="ear" class="cls-1" d="M737.6,222.76s41-15.38,42.6,27.32c1.31,35.24-28.54,33.86-39,32.3"/><path id="face" class="cls-1" d="M631.8,155.61h70.38a39,39,0,0,1,39,39v82.64a80.44,80.44,0,0,1-80.44,80.44h0a80.44,80.44,0,0,1-80.44-80.44V207.1A51.49,51.49,0,0,1,631.8,155.61Z"/><g id="headphones"><path class="cls-2" d="M759.9,315.38A276.13,276.13,0,0,0,755,263.2c0-.33,0-.68,0-1a11.45,11.45,0,0,0-11.4-11.4l.3,22.8a11.37,11.37,0,0,0,6.41-2.22c3.69,23,11,91.58-19.77,149.88-5.65,10.69-10.95,20.57-16.07,30.12-29,54.12-48.2,89.87-47.75,121.8a3,3,0,0,0,3,3h0a3,3,0,0,0,3-3c-.43-30.37,18.46-65.58,47-118.88,5.13-9.55,10.43-19.44,16.08-30.15C756,385.9,760.05,343.9,759.9,315.38Z"/><path class="cls-2" d="M572.48,274.8a11.26,11.26,0,0,0,4.57,1.41V253.53a11.4,11.4,0,0,0-10.24,9.67,3,3,0,0,0-.51,1.67c0,4.56,0,112.3,32,160.91,32.72,49.8,42.84,78.16,45.09,126.45a3,3,0,0,0,3,2.86h.14a3,3,0,0,0,2.86-3.13c-2.31-49.56-12.64-78.6-46.06-129.46C577.84,383.76,573.29,302.94,572.48,274.8Z"/></g><path id="nose" class="cls-1" d="M636.14,229l1.06,64.85s4.78,6.9,12.47-7.16"/><path id="mouth" class="cls-1" d="M636.14,307.64c5.84,6.83,19.56,5.71,33.16-3.18,0,0,5.3,17.37-21.09,20"/><path id="brow" class="cls-1" d="M661.67,208.11c.8-.2,9.35-12.53,22.48-2"/><ellipse id="eye_II" data-name="eye II" class="cls-2" cx="684.15" cy="248.1" rx="4.97" ry="7.69"/><ellipse id="eye" class="cls-2" cx="611.45" cy="250.08" rx="4.97" ry="7.69"/><path id="brow_II" data-name="brow II" class="cls-1" d="M595.56,207.54c.8-.17,11.63-15,22.54-1"/><g id="hair_shape" data-name="hair shape"><path class="cls-2" d="M680.79,138.13c-19.47.25-34.25,1.23-43.11,2.85h0c-71.57,16.28-60,69.32-60,69.32s35,6.67,63.49-35.51c0,0,39.13,31.93,97,44.79.93-.22,2-.51,3-.83v2.93a47.49,47.49,0,0,1,14.63-1.53c-.64-20.91-4.38-47.26-21.61-64.27C722,143.8,704,137.82,680.79,138.13Z"/><path class="cls-2" d="M868.67,94.59C844,24,773.94-15.71,712.22,5.88c-50.73,17.74-80,71.38-75.16,129.11,9.29-1.64,23.94-2.61,43.65-2.86,24.87-.32,44.28,6.23,57.71,19.48,19,18.79,22.86,47.35,23.42,69.53,9.19,2.49,17.65,10,18.36,28.94.07,1.92-1.61,16.6-1.2,16.55a30.78,30.78,0,0,0,4.54,16.43c6.88,11.1,20.91,18,41.72,20.42l.35,0a3,3,0,0,0,.35-6c-18.85-2.22-31.39-8.12-37.27-17.55a24.52,24.52,0,0,1-3.59-11.14c5.13,6,14,12.47,28.12,12.47a53.94,53.94,0,0,0,11.07-1.21,3,3,0,1,0-1.22-5.87c-18.19,3.78-28.35-3.15-33.59-9.33a103.68,103.68,0,0,0,12.11-3.43C863.31,239.88,893.34,165.17,868.67,94.59Z"/></g><g id="glasses"><circle class="cls-1" cx="688.53" cy="250.08" r="36.6"/><line class="cls-1" x1="627.25" y1="249.09" x2="651.13" y2="249.09"/><line class="cls-1" x1="720.53" y1="232.31" x2="741.18" y2="220.64"/><circle class="cls-1" cx="589.46" cy="250.08" r="36.6"/></g></g></g><path id="laptop" class="cls-2" d="M841.16,667.88H820.37L810.15,516.61a20.91,20.91,0,0,0-20.54-19.24H499.82a17.75,17.75,0,0,0-17.94,19.24l11.31,167.47a20.9,20.9,0,0,0,20.54,19.24l327.43-.42A10.84,10.84,0,0,0,852,692.06V678.72A10.84,10.84,0,0,0,841.16,667.88ZM660.83,559c-5.17,13.72-17,9.49-17,9.49C645.87,556,660.83,559,660.83,559Zm1.53,67.14c-10.42,6.47-26,4.09-34.88-5.33s-7.56-22.29,2.86-28.76a23.24,23.24,0,0,1,5.07-2.31,10.52,10.52,0,0,1-2.84-8.06,9.28,9.28,0,0,1,4.9-7.53c-1.21-4.51-3.15-10.43-4.74-12.33a2,2,0,0,1,.39-3.2,3.11,3.11,0,0,1,3.76.82c2.42,2.89,4.53,9.65,5.65,13.78.11,0,.23,0,.34,0a10.39,10.39,0,0,1,8.61,11.16,9.57,9.57,0,0,1-1.68,4.62,29,29,0,0,1,15.42,8.35C674.07,606.81,672.79,619.69,662.36,626.16Z"/><line id="line" class="cls-1" x1="3" y1="706.26" x2="1222.07" y2="706.26"/></g></g></g></svg>