<svg xmlns="http://www.w3.org/2000/svg" viewBox="0 0 1662.57 504.46"><defs fill="#000000fff"><style>.cls-1,.cls-3,.cls-6{fill:none;}.cls-1,.cls-4,.cls-6{stroke:#eeeeee;}.cls-1,.cls-3,.cls-4,.cls-6{stroke-linecap:round;stroke-linejoin:round;}.cls-1,.cls-3,.cls-4{stroke-width:6px;}.cls-2{fill:#eeeeee;}.cls-3{stroke:#929292;}.cls-4{fill:#000000;}.cls-5{fill:#929292;}.cls-6{stroke-width:8px;}</style></defs><g id="Layer_2" data-name="Layer 2"><g id="outline"><g id="team_at_work" data-name="team at work"><g id="cap_man" data-name="cap man"><path id="shirt" class="cls-1" d="M530.15,498.46A168.8,168.8,0,0,0,525,471" fill="#000000fff"/><path id="shirt-2" data-name="shirt" class="cls-1" d="M347.33,207.94c-27.25,1.3-49.32,4.27-59.61,5.75-57.07,28.25-88.12,194-50.51,226.69,7.12,6.19,18.59,12.39,32.64,18.17-1.2,14-2,28-2,41" fill="#000000fff"/><path id="shirt-3" data-name="shirt" class="cls-1" d="M500.12,257.89c-8.82-22.8-21.08-40.06-30.32-40.52-15.9-2.92-30.33-5.84-49.84-7.8" fill="#000000fff"/><path id="neck" class="cls-1" d="M357.49,228.67c-6.49-6.43-10.59-12.54-10.12-15.38l5-30" fill="#000000fff"/><path id="neck-2" data-name="neck" class="cls-1" d="M418.21,195.6,420,222.2c-2.79,20.62-12,27.66-23.06,27.49" fill="#000000fff"/><g id="head"><path id="face" class="cls-1" d="M335.06,117.42S326,59.07,385,49c5.5-.94,43.22-6.59,50.09,24.69,4.59,20.9,5.46,43.58,4.9,61.2,0,.1-.57,33.27-13.68,51.7s-42.16,16.71-57.52,7.63-18.17-13.81-22.47-24.58-11.21-52.12-11.21-52.12Z" fill="#000000fff"/><polyline id="nose" class="cls-1" points="415.71 121.98 421.17 148.88 411.1 148.88" fill="#000000fff"/><ellipse id="eye_II" data-name="eye II" class="cls-2" cx="428.07" cy="119.71" rx="4.6" ry="2.97" transform="matrix(0.01, -1, 1, 0.01, 304.18, 546.58)" fill="#000000fff"/><ellipse id="eye" class="cls-2" cx="399.66" cy="119.97" rx="4.6" ry="2.97" transform="translate(203.47 488.26) rotate(-78.66)" fill="#000000fff"/><path id="brow_II" data-name="brow II" class="cls-1" d="M384.07,102.13a13.6,13.6,0,0,1,12.74-5.45" fill="#000000fff"/><path id="brow" class="cls-1" d="M422.77,94.43S433,89.84,437.5,96" fill="#000000fff"/><path id="hair_front" data-name="hair front" class="cls-2" d="M381.36,73.93s22.3,78.18-29.7,86.22c0,0-30.29,5.35-37.21-5.35,0,0,21.95-11.66,19.19-24.19,0,0-24.68,27.06-46.16,7.64,0,0,35.85-6,32.67-38.24C317.87,76.88,373.37,55.17,381.36,73.93Z" fill="#000000fff"/><path id="hair_back" data-name="hair back" class="cls-2" d="M448.83,117.34c5-32.62-2.32-52.39-14.76-47.24a36.44,36.44,0,0,1,1,3.61c4.59,20.9,5.46,43.58,4.9,61.2,0,0-.07,3.77-.65,9.4,3.83,2.63,9,3.87,16,2.13C455.36,146.44,446.4,133.19,448.83,117.34Z" fill="#000000fff"/><path id="mouth" class="cls-1" d="M394.2,155.73s4.32,10.12,18.59,7.87" fill="#000000fff"/><path id="cap" class="cls-2" d="M286.32,84.94,318,80.15c3.28-21.33,15.7-51.87,59.42-56.94,68.31-7.94,70.35,58.54,70.35,58.54l-158.34,23.6a10.32,10.32,0,1,1-3.09-20.41Z" fill="#000000fff"/></g><path id="puzzle" class="cls-3" d="M547.91,433.74a25.15,25.15,0,0,0,1-7V404.07a62.87,62.87,0,0,0,0-125.73V244.06a25.27,25.27,0,0,0-25.27-25.27h-9.86a62.87,62.87,0,1,1-125.73,0h-9.86a25.28,25.28,0,0,0-25.27,25.27V407.45" fill="#000000fff"/><line id="puzzle-2" data-name="puzzle" class="cls-3" x1="410.34" y1="452.03" x2="476.57" y2="452.03" fill="#000000fff"/><g id="handII"><path class="cls-1" d="M490.73,411.37c.1-3.93.68-7.68,2.29-9.33,4.07-4.19,27,35,34.89,37.72" fill="#000000fff"/><path class="cls-1" d="M477.73,413.61a10.54,10.54,0,0,1,3.36-5.76c7.24-6.24,25.06,29.06,32.89,33.63" fill="#000000fff"/><path class="cls-1" d="M471.58,426.37c-.95-5.36-1-10.53,1.7-12.57,6.43-4.9,16.88,25.08,29.4,32" fill="#000000fff"/><path class="cls-1" d="M526.26,438.84h0A25,25,0,0,0,524.79,424c-2.27-5.35-5-12.63-5.24-17.28-.45-8.1,12.8-4.3,13.35.73s3.07,4.74,8.87,9.86,4.74,25.54,4.74,25.54,5.1,10.47-11.34,23-34,2.78-34,2.78S469.4,456.89,469.41,434s8.43,10.48,24.33,19.87" fill="#000000fff"/></g><g id="hand"><path class="cls-1" d="M395.28,411.87c-.07-4.11-.63-8.11-2.3-9.83-4.08-4.19-27,35-34.89,37.72" fill="#000000fff"/><path class="cls-1" d="M408.37,414.13a10.64,10.64,0,0,0-3.47-6.28c-7.24-6.24-25.06,29.06-32.89,33.63" fill="#000000fff"/><path class="cls-1" d="M414.54,425.57c.82-5.07.72-9.83-1.82-11.77-6.44-4.9-16.89,25.08-29.4,32" fill="#000000fff"/><path class="cls-1" d="M359.73,438.84h0A25.08,25.08,0,0,1,361.2,424c2.27-5.35,5-12.63,5.24-17.28.45-8.1-12.79-4.3-13.35.73s-3.07,4.74-8.87,9.86-7,25.36-7,25.36-2.88,10.65,13.56,23.17,34,2.78,34,2.78S416.6,456.89,416.59,434s-8.44,10.48-24.34,19.87" fill="#000000fff"/></g><polyline class="cls-1" points="318.83 294.25 305.17 366.47 345.44 381.38" fill="#000000fff"/><line class="cls-4" x1="264.43" y1="456.52" x2="362.85" y2="472.23" fill="#000000fff"/></g><g id="woman"><g id="body"><path id="shape" class="cls-1" d="M990.48,499.07,989,464.48c80.71-50.11,5.47-124.6,5.47-124.6L944.73,223.67c-3.19-7.2-9.89-12.53-18-14.68a39.68,39.68,0,0,0-13.28-3.53l-16.86-1.41,1.51-15.87s-1.79,4.36-14.62,7.78" fill="#000000fff"/><path id="shape-2" data-name="shape" class="cls-1" d="M778.46,204.05c-11.55.26-27.74,3.3-37.87,23.36L680.45,378.33c-10.65,19.49-5.14,48.34,12.56,63.2L728.11,461l-3.26,39" fill="#000000fff"/><g id="lines"><path class="cls-1" d="M777.1,383.43s-26.36-32.6-66.6-3.81" fill="#000000fff"/><path class="cls-1" d="M777.1,377.7c-.43-.87-16-36.17-59.75-13.43" fill="#000000fff"/><path class="cls-1" d="M932.27,383.43s24-42.76,69.86-13.19" fill="#000000fff"/><path class="cls-1" d="M929.28,375.32s12.82-33.13,55.3-25.38" fill="#000000fff"/></g><path class="cls-2" d="M1309.87,385.84a45.31,45.31,0,0,0-9.46,1c3.72,0,8.35,2.5,8.68,5.42.55,5,3.06,4.75,8.87,9.87s4.73,25.54,4.73,25.54,5.1,10.47-11.34,23-34,2.79-34,2.79a68.74,68.74,0,0,1-8.23-3.89,44.73,44.73,0,1,0,40.71-63.68Z" fill="#000000fff"/></g><g id="head-2" data-name="head"><line id="neck-3" data-name="neck" class="cls-1" x1="819.93" y1="173.09" x2="819.93" y2="146.09" fill="#000000fff"/><line id="neck-4" data-name="neck" class="cls-1" x1="878.56" y1="179.01" x2="878.15" y2="189.81" fill="#000000fff"/><g id="head-3" data-name="head"><path id="face-2" data-name="face" class="cls-1" d="M898,62.93c-24-16.62-45.64-22.71-79.5,20.69l-4.63,28.57c-14.23-4.29-21.73,2.65-18.63,15.06,3.33,13.37,11.08,19.38,24,15.9h0c6.17,14,17.85,30.11,39.56,34.81,34,7.37,41.85-13.67,45.64-21.94S922,79.56,898,62.93Z" fill="#000000fff"/><g id="face-3" data-name="face"><polyline id="nose-2" data-name="nose" class="cls-1" points="886.68 115.27 889.62 140.85 880.06 140.61" fill="#000000fff"/><ellipse id="eye_II-2" data-name="eye II" class="cls-2" cx="897.79" cy="115.2" rx="2.85" ry="4.41" fill="#000000fff"/><ellipse id="eye-2" data-name="eye" class="cls-2" cx="870.32" cy="114.72" rx="2.85" ry="4.41" fill="#000000fff"/><path id="brow-2" data-name="brow" class="cls-1" d="M895.7,89.51s7.92-2.06,9.9,4.41" fill="#000000fff"/><path id="mouth-2" data-name="mouth" class="cls-2" d="M867.91,146.09s9.17,3.33,16.93,2c0,0-2.91,13.27-10.39,11.66S867.91,146.09,867.91,146.09Z" fill="#000000fff"/></g><g id="hair"><path class="cls-2" d="M772.79,32.25C757.54,2.4,733-.21,704.68,5.42s-44.13,43.7-45.12,47.23c-11.55,41.17,3.74,85.18,37.7,111.16,3.77,2.87,7.54,5.79,11.15,8.61,20,15.63-24.25,29-24.25,29,84.69,6.79,66.22-78,64.42-85.48C775.68,105.59,787,60,772.79,32.25Z" fill="#000000fff"/><rect class="cls-5" x="767.93" y="37.21" width="26.87" height="79.52" rx="13.44" transform="translate(425.86 777.02) rotate(-68.7)" fill="#000000fff"/></g><path class="cls-2" d="M921.79,92.12c-.3-20.78-5.29-39-17.84-51a24,24,0,0,0-7.06-5.57c-10.24-6.63-24.14-10.18-42.58-9.52a3,3,0,0,0-1.13.3,76.72,76.72,0,0,0-8.6,1.28,31.84,31.84,0,0,0-4.6,1.08,90.12,90.12,0,0,0-14.81,5.44C783.81,51.92,767.53,84,786,128.31c9.54,22.84,21.92,30.19,33.89,30.21V144.69c-1-2.2-2.71-1.35-2.71-1.35-12.88,3.48-18.64-2.72-22-16.09-1.62-6.46-.35-11.43,3.23-14.11l.28-.21c.14-.1.29-.19.44-.28l.29-.18.49-.26.29-.13a5.38,5.38,0,0,1,.55-.24l.27-.1c.2-.07.41-.15.62-.21l.19,0a14.6,14.6,0,0,1,3.58-.55h.09q.45,0,.93,0h.18c.31,0,.63,0,.94,0h.21l1,.1.15,0a31.5,31.5,0,0,1,4.91,1.08h0c1.1.33.29.85,1.48,1.32l3-.21c1,0,2.08-.1,3.18-.23,26.11-3.14,66.67-21.82,81.12-45.82,10.2,12.36,11.31,36.73,9.44,57.26A58,58,0,0,0,921.79,92.12ZM874.56,85a3,3,0,0,1-3.41,2.53,10.06,10.06,0,0,0-9.49,3.64,3,3,0,0,1-2.45,1.24,2.94,2.94,0,0,1-1.73-.55,3,3,0,0,1-.73-4.14A16,16,0,0,1,872,81.56,3,3,0,0,1,874.56,85Z" fill="#000000fff"/></g></g><path id="puzzle-3" data-name="puzzle" class="cls-3" d="M928.16,393.13A62.29,62.29,0,0,1,939.43,274l-6.29-33.38a25,25,0,0,0-29.24-20l-9.6,1.81a62.29,62.29,0,1,0-122.42,23.08l-9.6,1.81a25,25,0,0,0-20,29.24l6.29,33.38a62.29,62.29,0,0,1,61.3,98.68" fill="#000000fff"/><path id="puzzle-4" data-name="puzzle" class="cls-3" d="M792.66,473.6a24.91,24.91,0,0,0,12.44.81l141.62-26.7a24.93,24.93,0,0,0,13.55-7.4" fill="#000000fff"/><g id="handII-2" data-name="handII"><path class="cls-1" d="M805.28,451.06c13.51,9.59,15.27,2.32,11.31-2.33-5-5.81-28.49-24.34-28.49-24.34s18.87,5.62,23.49-5-.43-12.71-7.54-9.1-29.2-9.41-29.2-9.41l-7.24-6.65s-24.3-7.82-30.55,19.06a27.12,27.12,0,0,0,5.26,25.95c2.89,3.27,12.9,16.3,44.63,32.15,0,0,14.88,5.53,3.74-5.22a86.68,86.68,0,0,0-8.79-7.38" fill="#000000fff"/><path class="cls-1" d="M784.16,436.62c4.73,3.51,24.49,14.61,29.21,21.69s-1.19,9.44-18.08-2.77" fill="#000000fff"/><path class="cls-1" d="M776.85,444.22c.52.86,32.93,18.4,30.83,23-1.73,3.76-6.35,4-24.27-7.4l-14.39-10" fill="#000000fff"/></g><g id="hand-2" data-name="hand"><path class="cls-1" d="M923.59,421.06c-15.75,5.12-15.26-2.34-10.1-5.6C920,411.39,948,400.74,948,400.74s-19.69-.28-20.92-11.83,4.21-12,9.92-6.44,30.68-.25,30.68-.25l8.9-4.19s25.52-.22,23.46,27.3a27.14,27.14,0,0,1-12.77,23.21c-3.73,2.26-17.17,11.7-52.19,17.35,0,0-15.86.84-2-6.1a86.4,86.4,0,0,1,10.6-4.41" fill="#000000fff"/><path class="cls-1" d="M948.06,413.58c-5.56,1.94-27.74,6.63-34.35,12s-1.68,9.36,18.08,2.76" fill="#000000fff"/><path class="cls-1" d="M952.77,423c-.76.66-36.92,7.73-36.29,12.74.52,4.1,4.88,5.66,25.37.18l16.74-5.29" fill="#000000fff"/></g></g><g id="developer"><g id="body-2" data-name="body"><path id="hoodie" class="cls-1" d="M1088.54,385.84a64.52,64.52,0,0,0-19.75,46.26c-.15,35.75,31.74,67.73,67.49,67.88" fill="#000000fff"/><path id="hoodie-2" data-name="hoodie" class="cls-1" d="M1247.79,154.69c-24.21,13.18-31,32.36-24.31,49.41" fill="#000000fff"/><path id="hoodie-3" data-name="hoodie" class="cls-1" d="M1457.56,499.19s1.46-61.86-5.91-127.52c12.91-29.64,25.09-62.81,25.18-82.63.26-54.62-79.4-73.4-79.4-73.4,4.53-20.56,4.06-64-45.78-74.95" fill="#000000fff"/><path id="t-shirt" class="cls-1" d="M1347.4,182.32,1368,193.73s-40.59,17.53-57.5,92.51" fill="#000000fff"/><path id="shadow_II" data-name="shadow II" class="cls-2" d="M1346.37,278.8c8.9-4.05,34.36-36.44,48.12-63.41,11.5-.17,31,7.7,38.19,13.29C1400,280.37,1346.32,278.88,1346.37,278.8Z" fill="#000000fff"/><g id="lines-2" data-name="lines"><path class="cls-1" d="M1340.49,374.88s39.14-19.75,68.51,26.3" fill="#000000fff"/><path class="cls-1" d="M1337.3,372.18s31.13-31.58,73.58,8.13" fill="#000000fff"/><path class="cls-1" d="M1450.24,374.88s-38.11,136-138.08,107.37c0,0-17.76-4.43-26.24-16" fill="#000000fff"/><path class="cls-1" d="M1326.1,389A192.58,192.58,0,0,0,1346,356.91c9.84-19.63,22.55-51.17,22.55-51.17" fill="#000000fff"/></g><path id="neck-5" data-name="neck" class="cls-1" d="M1348.59,153.77l-1.1,32.63a20.56,20.56,0,0,1-7.44,16.36,368.12,368.12,0,0,0-30,28.08" fill="#000000fff"/><path class="cls-2" d="M1153.1,438.39A72,72,0,0,1,1133,450.47s-17.52,9.74-34-2.78-11.34-23-11.34-23-1.07-20.42,4.74-25.54,8.31-4.83,8.87-9.86a1,1,0,0,1,0-.17,63.3,63.3,0,0,1-11.85-3.2,51.36,51.36,0,1,0,81.4,52.53Z" fill="#000000fff"/></g><g id="head-4" data-name="head"><path id="ear" class="cls-1" d="M1355.43,114.62s21,.5,17.12,19.23c-1.31,6.38-4.85,9.32-9,10.42" fill="#000000fff"/><path id="ear-2" data-name="ear" class="cls-1" d="M1363.6,144.27c-4,1.06-8.45.4-11.95-.52" fill="#000000fff"/><path id="face-4" data-name="face" class="cls-1" d="M1248.27,84.74a265.56,265.56,0,0,0-.27,63.85" fill="#000000fff"/><path id="beard" class="cls-1" d="M1297.17,206.74c10.17-.86,20-4.34,26.54-9,14.49-10.24,16.9-15.14,20.29-26.15s12.4-52.08,12.4-52.08l-12.17-1c-3.48,3.46-12.86,23.46-15.17,32.8,0,0-23-8-55.92-8.57,0,0-18,.29-25.14,2.41,0,0,1.42,33.11,15.91,50.31a29.58,29.58,0,0,0,9.65,7.48" fill="#000000fff"/><path id="hair-2" data-name="hair" class="cls-2" d="M1353.56,125.65s9.9-15.19,13.77-31c3.63-14.87-3.22-30.5-17-37.22-11.5-5.64-20.07-1.3-20.07-1.3s12.32-20.78-6-39.26A33.43,33.43,0,0,0,1299.8,7a32.21,32.21,0,0,0-29.43,19.49s-23.82-44.21-73.14-18.32c-5,2.61-10.6,9.93-13.3,14.86-16.38,29.88,37,65.59,64.91,68.51,30.61,3.22,48.55-1.78,58.45-9.23C1299.93,86.65,1308,132.5,1353.56,125.65Z" fill="#000000fff"/><path id="mouth-3" data-name="mouth" class="cls-6" d="M1293.84,165.77s-4.76,10.56-15.68,6.06" fill="#000000fff"/><polyline id="nose-3" data-name="nose" class="cls-6" points="1271.48 130.02 1265.34 154.93 1278.23 156.28" fill="#000000fff"/><ellipse id="eye_II-3" data-name="eye II" class="cls-2" cx="1259.05" cy="126.23" rx="4.57" ry="2.95" transform="translate(1127.4 1384.72) rotate(-89.75)" fill="#000000fff"/><ellipse id="eye-3" data-name="eye" class="cls-2" cx="1287.5" cy="125.85" rx="4.57" ry="2.95" transform="translate(1156.1 1412.79) rotate(-89.75)" fill="#000000fff"/><path id="brow_II-2" data-name="brow II" class="cls-6" d="M1302.19,109a13.54,13.54,0,0,0-12.8-5.1" fill="#000000fff"/><path id="brow-3" data-name="brow" class="cls-6" d="M1262.26,103.31s-8.18-2.17-10.26,4.52" fill="#000000fff"/></g><path id="puzzle-5" data-name="puzzle" class="cls-3" d="M1309.86,387.54l.68-157.68a25.38,25.38,0,0,0-25.27-25.5l-146.13-.63A25.39,25.39,0,0,0,1113.65,229l-.15,34.44a63.15,63.15,0,0,0-63.42,62.88c-.11,25.58,25.26,52.62,47.08,62.64" fill="#000000fff"/><line id="puzzle-6" data-name="puzzle" class="cls-3" x1="1155.28" y1="438.18" x2="1254.41" y2="438.54" fill="#000000fff"/><g id="hand-3" data-name="hand"><path class="cls-1" d="M1143.51,395.12c0-4.58-.44-9.31-2.31-11.22-4.07-4.19-25.36,34.08-33.24,36.8" fill="#000000fff"/><path class="cls-1" d="M1156.67,396.41a10.9,10.9,0,0,0-3.54-6.71c-7.24-6.23-25.06,29.06-32.89,33.63" fill="#000000fff"/><path class="cls-1" d="M1161.83,410.11c.94-5.53,1-11.12-1.88-13.31-6.44-4.9-15.89,23.94-28.41,30.81" fill="#000000fff"/><path class="cls-1" d="M1108,420.7h0a25,25,0,0,1,1.47-14.84c2.27-5.36,5-12.63,5.24-17.29.45-8.1-12.8-4.29-13.35.73s-3.07,4.75-8.88,9.86-4.73,25.54-4.73,25.54-5.1,10.47,11.34,23,34,2.78,34,2.78,31.81-11.73,31.8-34.62-8.43,10.48-24.33,19.88" fill="#000000fff"/></g><g id="handII-3" data-name="handII"><path class="cls-1" d="M1266.9,396.58c.08-4.08.63-8,2.3-9.75,4.07-4.19,25.87,34.25,33.75,37" fill="#000000fff"/><path class="cls-1" d="M1253.73,399.34a10.87,10.87,0,0,1,3.55-6.71c7.23-6.23,25,29.06,32.89,33.63" fill="#000000fff"/><path class="cls-1" d="M1247.84,411.55c-1-5.5-1.12-10.88,1.62-13,6.44-4.9,16.89,25.08,29.4,32" fill="#000000fff"/><path class="cls-1" d="M1302.44,423.63h0a25,25,0,0,0-1.47-14.84c-2.26-5.36-5-12.63-5.24-17.28-.45-8.11,12.8-4.3,13.36.72s3.06,4.75,8.87,9.87,4.73,25.54,4.73,25.54,5.1,10.47-11.34,23-34,2.79-34,2.79-31.81-11.74-31.8-34.63,8.43,10.48,24.33,19.88" fill="#000000fff"/></g></g><line id="line" class="cls-4" x1="3" y1="501.46" x2="1659.57" y2="501.46" fill="#000000fff"/></g></g></g></svg>