<svg xmlns="http://www.w3.org/2000/svg" xmlns:xlink="http://www.w3.org/1999/xlink" version="1.1" id="Layer_1" x="0px" y="0px" viewBox="0 0 1576.4 785.7" style="enable-background:new 0 0 1576.4 785.7;" xml:space="preserve">
<style type="text/css">
	.st0{fill:none;stroke:#eeeeee;stroke-width:6;stroke-linecap:round;stroke-linejoin:round;}
	.st1{fill:#eeeeee;}
	.st2{fill:#929292;}
	.st3{fill:none;stroke:#929292;stroke-width:6;stroke-linecap:round;stroke-linejoin:round;}
	.st4{fill:none;stroke:#929292;stroke-width:8;stroke-linecap:round;stroke-linejoin:round;}
	.st5{fill:none;stroke:#929292;stroke-width:4.5;stroke-linecap:round;stroke-linejoin:round;}
	.st6{fill:#eeeeee;stroke:#eeeeee;stroke-width:6;stroke-linecap:round;stroke-linejoin:round;}
</style>
<g id="Layer_2_1_">
	<g id="outline">
		<g id="screen">
			<path id="shape" class="st0" d="M412.9,309.3v-277C412.9,16.1,426,3,442.2,3h694.7c16.2,0,29.3,13.1,29.3,29.3c0,0,0,0,0,0v438.2     " fill="#ffffff"/>
			<path id="line" class="st0" d="M448.7,477.4V33.8c0-15.1,11.7-27.3,26.2-27.3" fill="#ffffff"/>
			<line id="line-2" class="st0" x1="702.6" y1="588.4" x2="702.6" y2="669.3" fill="#ffffff"/>
			<line id="line-3" class="st0" x1="702.6" y1="4.5" x2="702.6" y2="460.1" fill="#ffffff"/>
			<g id="code_lines">
				<g id="more_code_lines">
					<path class="st1" d="M852.2,51.4h5.4c2.8,0,5,2.2,5,5V67c0,2.8-2.2,5-5,5h-5.4c-2.8,0-5-2.2-5-5V56.4       C847.2,53.6,849.4,51.4,852.2,51.4z" fill="#ffffff"/>
					<path class="st1" d="M740.4,51.4h95.8c2.8,0,5,2.2,5,5V67c0,2.8-2.2,5-5,5h-95.8c-2.8,0-5-2.2-5-5V56.4       C735.4,53.6,737.7,51.4,740.4,51.4z" fill="#ffffff"/>
					<path class="st1" d="M740.4,147.1h105.4c2.8,0,5,2.2,5,5v10.6c0,2.8-2.2,5-5,5H740.4c-2.8,0-5-2.2-5-5v-10.6       C735.4,149.4,737.7,147.1,740.4,147.1z" fill="#ffffff"/>
					<path class="st1" d="M769.6,115.2h169c2.8,0,5,2.2,5,5v10.6c0,2.8-2.2,5-5,5h-169c-2.8,0-5-2.2-5-5v-10.6       C764.6,117.5,766.9,115.2,769.6,115.2z" fill="#ffffff"/>
					<path class="st1" d="M1069.2,263.9h5.4c2.8,0,5,2.2,5,5v10.6c0,2.8-2.2,5-5,5h-5.4c-2.8,0-5-2.2-5-5v-10.6       C1064.2,266.1,1066.4,263.9,1069.2,263.9z" fill="#ffffff"/>
					<path class="st1" d="M740.4,83.3h175.1c2.8,0,5,2.2,5,5v10.6c0,2.8-2.2,5-5,5H740.4c-2.8,0-5-2.2-5-5V88.3       C735.4,85.6,737.7,83.3,740.4,83.3z" fill="#ffffff"/>
					<path class="st1" d="M874.3,51.4h95.8c2.8,0,5,2.2,5,5V67c0,2.8-2.2,5-5,5h-95.8c-2.8,0-5-2.2-5-5V56.4       C869.3,53.6,871.6,51.4,874.3,51.4z" fill="#ffffff"/>
					<path class="st1" d="M933.8,83.3h112.7c2.8,0,5,2.2,5,5V99c0,2.8-2.2,5-5,5H933.8c-2.8,0-5-2.2-5-5V88.3       C928.8,85.5,931,83.3,933.8,83.3z" fill="#ffffff"/>
				</g>
				<g id="code_lines-2">
					<path class="st1" d="M740.4,231.2h95.8c2.8,0,5,2.2,5,5v10.6c0,2.8-2.2,5-5,5h-95.8c-2.8,0-5-2.2-5-5v-10.6       C735.4,233.5,737.7,231.2,740.4,231.2z" fill="#ffffff"/>
					<path class="st1" d="M958.6,295.1h86.7c2.8,0,5,2.2,5,5v10.6c0,2.8-2.2,5-5,5h-86.7c-2.8,0-5-2.2-5-5v-10.6       C953.6,297.3,955.8,295.1,958.6,295.1z" fill="#ffffff"/>
					<path class="st1" d="M740.4,263.1h175.1c2.8,0,5,2.2,5,5v10.6c0,2.8-2.2,5-5,5H740.4c-2.8,0-5-2.2-5-5v-10.6       C735.4,265.4,737.7,263.1,740.4,263.1z" fill="#ffffff"/>
					<path class="st1" d="M852.2,231.2h118c2.8,0,5,2.2,5,5v10.6c0,2.8-2.2,5-5,5h-118c-2.8,0-5-2.2-5-5v-10.6       C847.2,233.5,849.4,231.2,852.2,231.2z" fill="#ffffff"/>
					<path class="st1" d="M988.3,231.2h95.8c2.8,0,5,2.2,5,5v10.6c0,2.8-2.2,5-5,5h-95.8c-2.8,0-5-2.2-5-5v-10.6       C983.3,233.5,985.6,231.2,988.3,231.2z" fill="#ffffff"/>
					<path class="st1" d="M852.2,200.3h5.4c2.8,0,5,2.2,5,5v10.6c0,2.8-2.2,5-5,5h-5.4c-2.8,0-5-2.2-5-5v-10.6       C847.2,202.6,849.4,200.3,852.2,200.3z" fill="#ffffff"/>
					<path class="st1" d="M740.4,200.3h95.8c2.8,0,5,2.2,5,5v10.6c0,2.8-2.2,5-5,5h-95.8c-2.8,0-5-2.2-5-5v-10.6       C735.4,202.6,737.7,200.3,740.4,200.3z" fill="#ffffff"/>
					<path class="st1" d="M874.3,200.3h95.8c2.8,0,5,2.2,5,5v10.6c0,2.8-2.2,5-5,5h-95.8c-2.8,0-5-2.2-5-5v-10.6       C869.3,202.6,871.6,200.3,874.3,200.3z" fill="#ffffff"/>
					<path class="st1" d="M933.8,263.1h120.5c2.8,0,5,2.2,5,5v10.7c0,2.8-2.2,5-5,5H933.8c-2.8,0-5-2.2-5-5v-10.7       C928.8,265.3,931,263.1,933.8,263.1z" fill="#ffffff"/>
				</g>
				<g id="shapes">
					<path class="st1" d="M509.5,212.8h19.9c2.8,0,5,2.2,5,5v10.6c0,2.8-2.2,5-5,5h-19.9c-2.8,0-5-2.2-5-5v-10.6       C504.5,215,506.7,212.8,509.5,212.8z" fill="#ffffff"/>
					<path class="st1" d="M509.5,177.6h58.9c2.8,0,5,2.2,5,5v10.6c0,2.8-2.2,5-5,5h-58.9c-2.8,0-5-2.2-5-5v-10.6       C504.5,179.8,506.7,177.6,509.5,177.6z" fill="#ffffff"/>
					<path class="st1" d="M509.5,146.8h80.9c2.8,0,5,2.2,5,5v10.6c0,2.8-2.2,5-5,5h-80.9c-2.8,0-5-2.2-5-5v-10.6       C504.5,149,506.7,146.8,509.5,146.8z" fill="#ffffff"/>
					<path class="st1" d="M509.5,115.5h58.9c2.8,0,5,2.2,5,5V131c0,2.8-2.2,5-5,5h-58.9c-2.8,0-5-2.2-5-5v-10.5       C504.5,117.7,506.7,115.5,509.5,115.5z" fill="#ffffff"/>
					<path class="st1" d="M509.5,82.4h35.2c2.8,0,5,2.2,5,5v10.5c0,2.8-2.2,5-5,5h-35.2c-2.8,0-5-2.2-5-5V87.4       C504.5,84.6,506.7,82.4,509.5,82.4z" fill="#ffffff"/>
					<path class="st1" d="M561.3,82.4h8.5c1.8,0,3.3,1.5,3.3,3.3v13.9c0,1.8-1.5,3.3-3.3,3.3h-8.5c-1.8,0-3.3-1.5-3.3-3.3V85.7       C558,83.9,559.4,82.4,561.3,82.4z" fill="#ffffff"/>
					<path class="st1" d="M584.2,115.1h8.5c1.8,0,3.3,1.5,3.3,3.3v13.9c0,1.8-1.5,3.3-3.3,3.3h-8.5c-1.8,0-3.3-1.5-3.3-3.3v-13.9       C580.9,116.6,582.4,115.1,584.2,115.1z" fill="#ffffff"/>
					<path class="st1" d="M608.6,146.8h8.5c1.8,0,3.3,1.5,3.3,3.3v13.9c0,1.8-1.5,3.3-3.3,3.3h-8.5c-1.8,0-3.3-1.5-3.3-3.3v-13.9       C605.3,148.3,606.8,146.8,608.6,146.8z" fill="#ffffff"/>
					<path class="st1" d="M585,177.8h8.5c1.8,0,3.3,1.5,3.3,3.3v13.9c0,1.8-1.5,3.3-3.3,3.3H585c-1.8,0-3.3-1.5-3.3-3.3v-13.9       C581.7,179.3,583.1,177.8,585,177.8z" fill="#ffffff"/>
					<path class="st1" d="M545,212.8h8.5c1.8,0,3.3,1.5,3.3,3.3v13.9c0,1.8-1.5,3.3-3.3,3.3H545c-1.8,0-3.3-1.5-3.3-3.3v-13.9       C541.7,214.3,543.2,212.8,545,212.8z" fill="#ffffff"/>
					<path class="st1" d="M635,242.7h8.5c1.8,0,3.3,1.5,3.3,3.3V260c0,1.8-1.5,3.3-3.3,3.3H635c-1.8,0-3.3-1.5-3.3-3.3V246       C631.7,244.2,633.1,242.7,635,242.7z" fill="#ffffff"/>
					<path class="st1" d="M508.2,49.2h73.3c2.8,0,5,2.2,5,5v10.5c0,2.8-2.2,5-5,5h-73.3c-2.8,0-5-2.2-5-5V54.2       C503.2,51.5,505.5,49.2,508.2,49.2z" fill="#ffffff"/>
				</g>
				<path class="st1" d="M621.3,242.8h-48.9c-1.1,1.9-2.9,4.5-5,7.4c2.7-1.8,11.7-8,11.9-3.4c0.2,2.6-7.7,10.5-13.9,16.5h55.9      c2.8,0,5-2.2,5-5v-10.6C626.3,245,624.1,242.8,621.3,242.8C621.3,242.8,621.3,242.8,621.3,242.8z" fill="#ffffff"/>
				<path class="st1" d="M509.5,263.3h1.8c5.2-6.6,20-12.2,20-12.2c2.4-1.6,7.1-5.7,10.2-8.4h-32c-2.8,0-5,2.2-5,5v10.6      C504.5,261.1,506.7,263.3,509.5,263.3z" fill="#ffffff"/>
				<path class="st1" d="M994.2,129c-6.3,2.6-18.8,5.2-20.2,1.1c-0.6-1.6,14.2-9.1,17.1-9.5s22.1-4.2,22.1-4.2s9.5-0.1,17.6-0.2      c0.7,0,1.4,0,2.1,0.1c-0.9-0.7-1.9-1-3-1h-71.2c-2.8,0-5,2.2-5,5v10.6c0,2.8,2.2,5,5,5h57.9      C1015.9,132.6,1000.5,126.3,994.2,129z" fill="#ffffff"/>
			</g>
		</g>
		<g id="sitting_woman">
			<path id="shape-2" class="st1" d="M299.5,737.6l-0.1-213.5c0,0-77.7,0.4-77.9,0l-0.2-0.2h-84.2v257.3h229v-43.6H299.5z" fill="#ffffff"/>
			<path id="shoes" class="st2" d="M431,780.2l-1,0.4h-22.5c-2.2,0.2-13.8-0.3-3.9-6.5c2-0.8,18.6-11.5,25.2-12.7s31.9-1.2,32.4-1.2     c0.3,0,3-7.4,5.5-14.4c-4.5-1-9.9-4.7-14.5-8.9c0.4,0.8-138.8-2.1-138.8-2.1l1.2,48.4h20.6l1.2-43.1c0,0,8.4,42.1,37.1,44     c9.1,0.6,43.9-1.5,71.5-3.6C438.5,780.4,433.2,780.2,431,780.2z" fill="#ffffff"/>
			<g id="hand">
				<path id="finger" class="st0" d="M535.7,278.9c0,0,18.7-5.1,29.4-15.2c6.3-6.1,14.5-14.2,14.3-16.9c-0.3-5-10.8,2.7-12.5,3.7" fill="#ffffff"/>
				<path id="hand-2" class="st0" d="M529.2,285.3l1.7-4.1c10.1-4.2,16.9-8.7,21.3-12.6c5.7-5.1,21.6-26.3,21.5-28.5      c-0.4-6-10.2-3.5-15.2,7.4" fill="#ffffff"/>
				<path id="hand-3" class="st0" d="M545.8,262.4c0,0,8.9-7.7,12-14.1s5.3-11.3,4.2-12.1s-6.8,0.7-9.1,4.4      c-2.5,6.4-12.9,15.1-12.9,15.1c1.3-0.5,7.7-7.6,10.6-12s3-11.2-6-3.6c0,0-9.5,8.5-13.2,11c0,0-16.7,6.3-20.9,13.4l0,0      c-0.9,1.6-3.9,6.5-8.1,13.3" fill="#ffffff"/>
			</g>
			<polygon id="sleeve" class="st0" points="469.5,321.2 493.8,277 532.1,286.1 492.1,383.6    " fill="#ffffff"/>
			<path id="shape-3" class="st0" d="M290.1,270.8l-21.6,0.1c-11.3,0-26.7,12-28.4,25.1c-3.1,24-12.4,57.1-18.8,84.7     c-15,46-30.2,114.6,0.3,143.3c0.2,0.4,77.9,0,77.9,0l0.1,213.5h154.9c0,0,30.6-217.3,23.3-234.2s-97.1-66.7-97.1-66.7     s39.9-102.8,17.5-134.2c-11.2-15.1-26.3-20.2-38.2-22.5" fill="#ffffff"/>
			<g id="head">
				<g id="earrings_back">
					<path class="st3" d="M305.6,265.6c-5.2,0.6-10.4-5.5-11.7-13.9c-0.7-4-0.2-8.2,1.4-11.9" fill="#ffffff"/>
					<path class="st3" d="M387.1,260.2c-5.2,0.6-10.4-5.5-11.7-13.9" fill="#ffffff"/>
				</g>
				<path id="ponytail" class="st1" d="M300.9,173.9c12.2-9,20.3-56.3-12.8-88c-33.6-32.1-61.5,0.7-67.7,9.3s-10.9,32.4,18.1,54.9      S287,184.2,300.9,173.9z" fill="#ffffff"/>
				<path class="st2" d="M318.7,194.8l-0.8,0.5c-4.7,2.9-10.8,1.7-14-2.8L295,180c-3.1-4.1-2.2-10,1.9-13.1c0.2-0.1,0.3-0.2,0.5-0.3      l0.8-0.5c4.7-2.9,10.8-1.7,14,2.8l8.9,12.5c3.1,4.1,2.2,10-1.9,13.1C319,194.6,318.9,194.7,318.7,194.8z" fill="#ffffff"/>
				<path id="ear" class="st0" d="M308.6,238.8c-3.3,2-7.4,2.1-10.9,0.4c-5.6-2.5-8.1-9-5.6-14.5c0,0,0,0,0-0.1      c2.1-4.3,6.8-6.7,11.6-5.8" fill="#ffffff"/>
				<path id="ear-2" class="st0" d="M376.2,215.6c2.8-0.8,5.8-0.6,8.4,0.6c5.6,2.5,8.1,9,5.6,14.6c-2.3,4.6-7.5,7-12.5,5.7" fill="#ffffff"/>
				<path id="neck" class="st0" d="M348.7,271.3l0.2,6.2l13.4,3c0.8,2.2,1.6,40-33,35.3c-22.7-3.1-32.5-26.6-38.6-45.2l20.6,2.4      l0.1-25.3" fill="#ffffff"/>
				
					<ellipse id="face" transform="matrix(0.9835 -0.1807 0.1807 0.9835 -35.1025 65.4473)" class="st0" cx="341.7" cy="225.4" rx="35.7" ry="45.9" fill="#ffffff"/>
				<path id="nose" class="st0" d="M344.9,236.3l6.8-0.2c0.6,0,1.1-0.5,1-1.1c0-0.1,0-0.2,0-0.2l-4.9-18.5" fill="#ffffff"/>
				<path id="brow_II" class="st0" d="M326,207.1c0,0,6-5.4,11-0.9" fill="#ffffff"/>
				<path id="brow" class="st0" d="M353.5,205.4c0,0,7.7-2.9,10.8,3" fill="#ffffff"/>
				
					<ellipse id="eye_II" transform="matrix(3.245743e-02 -0.9995 0.9995 3.245743e-02 103.1287 551.0963)" class="st1" cx="336.2" cy="222.3" rx="4.1" ry="2.7" fill="#ffffff"/>
				
					<ellipse id="eye" transform="matrix(0.9974 -7.219377e-02 7.219377e-02 0.9974 -15.1753 26.6874)" class="st1" cx="361.6" cy="223.3" rx="2.7" ry="4.1" fill="#ffffff"/>
				<g id="earrings_front">
					<path class="st3" d="M384.2,228.9c5.3-0.8,9.7,6.2,11,14.6s-1.9,16-7.2,16.8h-0.2" fill="#ffffff"/>
					<path class="st3" d="M301,234.9c5.3-0.8,10.6,5.4,11.9,13.8c1.3,8.5-1.9,16-7.2,16.8h-0.2" fill="#ffffff"/>
				</g>
				<path id="mouth" class="st0" d="M346.2,249.7c0,0-15.5,9.6-16.3-11.3L346.2,249.7z" fill="#ffffff"/>
				<path id="hair" class="st1" d="M328.8,169.6l-0.1,0.1c-11.6,1.7-24.6,7-31.8,14.8c-12.8,13.8-6.9,43.3,6.1,45.3      c1.1,0.2,2.2,0.3,3.2,0.3c-0.1-0.7-0.2-1.5-0.3-2.2c-0.3-2.7-0.4-5.4-0.4-8.1c17.8-6.6,17.7-33.3,17.7-35.5      c3.8,3,8.7,8.1,7.4,13.8l39.3,2.5c4,6.9,6.5,14.5,7.3,22.3v0.3c3.7-5.3,3.8-13.4,0.8-22.1l13.3,0.8      C391.4,201.9,403.6,157.1,328.8,169.6z" fill="#ffffff"/>
			</g>
			<g id="lines">
				<polyline class="st0" points="368.9,371.1 285.3,370.9 290,334.8     " fill="#ffffff"/>
				<path class="st0" d="M220.3,384.5c-3.7,14.6,8.4,32.2,23.5,32.5l121.3-0.1" fill="#ffffff"/>
				<path class="st0" d="M286.1,371c0,0-12.5-5.6-21.6,7.9" fill="#ffffff"/>
				<path class="st0" d="M285.8,366.7c0,0-11.6-10.5-26.2,1.6" fill="#ffffff"/>
			</g>
			<path id="laptop" class="st1" d="M268.3,403.1l61.3,0.6l20.2-95c0.3-2,2.1-3.5,4.1-3.6l149.4,2.3c2.7,0,4.7,2.9,4.1,5.9     l-19,101.3c-1.3,6.3-9.2,11.1-14.9,11c-36.7-0.6-184.5-2.7-188.9-2.8C264.9,422.6,268.3,403.1,268.3,403.1z" fill="#ffffff"/>
			<polyline id="table" class="st0" points="186.4,778.2 186.4,423.3 526.1,423.3 526.1,778.2    " fill="#ffffff"/>
		</g>
		<g id="thinking_man">
			<g id="hand_II">
				<path class="st0" d="M430,780.6h-22.5c-2.2,0.2-13.8-0.3-3.9-6.5c2-0.8,18.6-11.5,25.2-12.7s31.9-1.2,32.4-1.2s9.3-25,9.5-26.4      l35.8,1.6c-1.9,4.8-13.1,40.1-21.3,43.2s-55.3,1.5-55.3,1.5s0.8-7,10.1-8s13.2-1,13.2-1" fill="#ffffff"/>
			</g>
			<g id="head-2">
				<path id="neck-2" class="st0" d="M641.4,484.8l-5.2,21.6l0,0c3.3,18-17.5,30.5-31.9,19.1l-25.5-20.2l14.2-28.4" fill="#ffffff"/>
				<path id="face-2" class="st0" d="M648.1,482c-6.4,3.4-13.7,5-21,4.4c-12.6-1.4-15.8-3.6-21.7-9.4S583,446.6,583,446.6v-0.1      c0,0-22.8-35.1,12.4-58.7c3.3-2.2,26-16.8,39.6,1.4c9,12.2,16.2,26.6,20.9,38.1c0,0,5.5,12.9,6.6,25.9" fill="#ffffff"/>
				<polyline id="nose-2" class="st0" points="636.4,424.7 648,440.4 641.3,444.5     " fill="#ffffff"/>
				
					<ellipse id="eye_II-2" transform="matrix(0.8738 -0.4863 0.4863 0.8738 -121.8928 365.3664)" class="st1" cx="642.9" cy="417.5" rx="2.1" ry="3.3" fill="#ffffff"/>
				
					<ellipse id="eye-2" transform="matrix(0.9493 -0.3143 0.3143 0.9493 -103.3016 219.4201)" class="st1" cx="628.7" cy="430" rx="2.1" ry="3.3" fill="#ffffff"/>
				<path id="brow-2" class="st0" d="M611.4,424.9c0.7-3.4,3.3-6.2,6.7-7.2" fill="#ffffff"/>
				<path class="st0" d="M633,406.2c0,0,5.3-5.9,10-3.2" fill="#ffffff"/>
				<path id="hair-2" class="st1" d="M595,405.9c0,0,40.3,47.8,6.3,69.9c0,0-14.9,9-23.1,3.6c0,0,10-8.5,4.1-16.4      c0,0-10.5,26-31.6,19.2c0,0,20.6-15.9,12.1-31.6S583.5,395.3,595,405.9z" fill="#ffffff"/>
				<path id="cap" class="st1" d="M638.2,387.2c0,0-29.8-39.2-67.5-5.1c-21.8,19.6-19.4,40.8-13.5,55.3l-18,19      c-3.7,4.3-3.2,10.8,1.1,14.5c4,3.4,10,3.3,13.8-0.3L638.2,387.2z" fill="#ffffff"/>
				<line id="mouth-2" class="st0" x1="637.6" y1="455" x2="646.4" y2="452.6" fill="#ffffff"/>
			</g>
			<g id="hand-4">
				<path id="hand-5" class="st0" d="M672.3,485c7.2,0.4,15.2,2.9,19.1,0.5c5.1,8.1,10.7,15.7,16.9,23" fill="#ffffff"/>
				<path id="hand-6" class="st0" d="M734.9,486.7c-9.5-6.1-17.6-12.1-22.5-17.3c-4.3-4.1-7.8-7.3-10.7-9.7c-6.9-5.9-16-8.7-25-7.7      c-6.9,0.8-14.9,1.9-18.7,3.4c-7.3,2.9-31.3,12.1-29.7,15.9c1.1,2.7,14.3,0.6,21-0.8" fill="#ffffff"/>
				<path id="finger_III" class="st0" d="M658.6,462.6c0,0-13.2,8.2-11.8,14.4s6.3,4.3,6.3,4.3" fill="#ffffff"/>
				<path id="finger_II" class="st0" d="M664.9,467.2c0,0-13.3,10.1-11.4,16.2s6.6,3.8,6.6,3.8" fill="#ffffff"/>
				<path id="finger-2" class="st0" d="M669.8,475c0,0-15.8,12.4-6,15.5s12.8,0.7,12.8,0.7s3.4-5.4-6.7-6.5" fill="#ffffff"/>
			</g>
			<g id="trousers">
				<path class="st0" d="M698.3,657.5c35.1-37.2,80.3-85.5,94.9-102c23.9-26.9,66.9-23.8,86.6-3.4" fill="#ffffff"/>
				<path class="st0" d="M653.7,704.9L829.1,680c7.5-0.7,15.1-0.6,22.7,0.1l167.6,20.8l-0.4,81.4l-414.5,0.3L653.7,704.9z" fill="#ffffff"/>
			</g>
			<path id="laptop-2" class="st1" d="M834.7,541.6c-3.6-0.7-7.2,1.6-7.9,5.2c0,0,0,0,0,0l-24,122.9l-122.1,16.5l0.4,2.7     c0.7,5.2,5.5,8.9,10.7,8.2c0,0,0,0,0,0L808,681.4c5.2-0.7,8.9-5.5,8.2-10.7c0,0,0,0,0,0l0,0l23.6-121.1     C840.6,546,838.3,542.4,834.7,541.6C834.7,541.6,834.7,541.6,834.7,541.6z" fill="#ffffff"/>
			<path id="shirt" class="st1" d="M757.9,595.5c15.2-17,27.6-31.2,35.4-39.9c2.2-2.5,4.6-4.7,7.2-6.8c-1.6-3.4-3.5-6.6-5.7-9.6     c-11.4-14.8-58.5-70.9-58.5-70.9l-39.2,33.6l6.8,9.3c-26.6-6.4-53.1-10.1-66.6-9.4l-1.1,4.7l0,0c3.3,18-17.5,30.5-31.9,19.1     l-25.5-20.2l2.1-4.1c-22.8-1-43,3.5-49.4,20.3c-12,22.2-65.7,220.5-65.7,220.5l69.2,1.8l7-27.5c1.8,17.8,3.8,34.1,6.2,46.7     c3.2,17.3,38.7,21.3,56.3,21.1l45.6-0.6l68-81.4l-34.6-113.8C704.3,592.2,734.8,596.8,757.9,595.5z" fill="#ffffff"/>
			<path id="hair_front" class="st1" d="M683,403.3c0,0-22,6.7-29.1-7.5c-3-6-12.4-9.3-22.2-10.1c1.2,1.1,2.3,2.3,3.2,3.5     c9,12.2,16.2,26.6,20.9,38.1c0,0,1,2.4,2.2,6c4-2.6,8.5-6.7,8.7-11.6c0,0-11.2,2.9-14-5.5C652.9,416.3,677.1,422.1,683,403.3z" fill="#ffffff"/>
		</g>
		<g id="standing_woman">
			<path id="shoe" class="st2" d="M1375.3,736.3c0,0,49,24.3,44.6,49.4l-103.4-0.4l1.8-48.8L1375.3,736.3z" fill="#ffffff"/>
			<g id="ponytail-2">
				<path class="st1" d="M1342.9,145.7c-4.6-13.5-20.8-20.1-36.3-14.7c-7.5,2.5-13.8,7.8-17.7,14.7l11,26.4l19.6,3.6      c-1.5,2.1-3.1,4.1-4.8,6c2.9-0.2,5.8-0.8,8.6-1.8C1338.6,174.5,1347.4,159.2,1342.9,145.7z" fill="#ffffff"/>
				
					<ellipse transform="matrix(0.9356 -0.3531 0.3531 0.9356 22.1057 487.0575)" class="st1" cx="1345.8" cy="182.9" rx="23.1" ry="20.1" fill="#ffffff"/>
				
					<ellipse transform="matrix(0.9356 -0.3531 0.3531 0.9356 15.7772 497.7285)" class="st1" cx="1371.9" cy="205.6" rx="20.7" ry="18" fill="#ffffff"/>
				<path class="st1" d="M1405.4,228.2c2.7,7.8-2.4,16.6-11.3,19.7s-18.3-0.7-20.9-8.4s2-17,10.9-20.1S1402.8,220.4,1405.4,228.2z" fill="#ffffff"/>
				<path class="st1" d="M1421.8,249.2c0.2,8.4,4.4,11.8,8.4,13.1c1.1,0.4,1.7,1.6,1.3,2.7c-0.2,0.6-0.6,1-1.2,1.3      c-10.6,4.2-29.7,9.3-35.7-5.6c-2.8-7,0.6-15.4,8.4-19.2S1421.6,241.6,1421.8,249.2z" fill="#ffffff"/>
				<line class="st4" x1="1339.3" y1="164.2" x2="1324.1" y2="179.8" fill="#ffffff"/>
				<line class="st4" x1="1367.1" y1="188.4" x2="1353.4" y2="200.8" fill="#ffffff"/>
				<line class="st4" x1="1383.9" y1="219.9" x2="1379.2" y2="223.1" fill="#ffffff"/>
				<line class="st4" x1="1401.4" y1="242" x2="1396.9" y2="245.4" fill="#ffffff"/>
			</g>
			<path id="shirt-2" class="st1" d="M1442.7,313.2c-3.2-5.7-9.1-19.7-13.1-26.1c-26.3-42.8-67.3-97.9-87.4-104.6     c-0.5-0.2-1-0.4-1.6-0.5l-22.7-4.3c-12.7,16.6-38.4,33.9-60.8,28.8c-35.4-8.1-20.8-39.6-19.5-41.8l11.3,2.5l-1.3-2.9l-8.6-1.6     c-8.7-2.1-20-1.5-34.1,3.2c-21.4,7.2-59.9,20.3-87,29.6l0.6,0.6c9.6,10.4,30.4,39.1,14.7,51.2c-4.3,3.3-8.4,5.5-12.4,6.4l1.6,2.3     c0,0,11.6-5.9,49-18.1c7.4-2.4,15.6-4.8,23.8-7.2c1.4,16.9,10.2,36.6,31.9,58.6c11,13.7,54.7,19.5,54.7,19.5     c12.9,3.7,39.4-16.9,46.4-28.6c2.3-3.8,4.7-8.1,7.1-12.9c12,15.8,27.3,35.3,40,51.3C1397.3,298.4,1416.1,296.3,1442.7,313.2z" fill="#ffffff"/>
			<path id="trousers-2" class="st0" d="M1150.8,514.4c28.6-78.1,55.8-151.7,60.5-161.8c10.5-22.4,22.3-31.5,37.8-35.8     s31.6-15.6,31.6-15.6c45.8,7.5,44.4,27.1,59.9,56.5s56.8,378.8,56.8,378.8l-121.3,1.7l-7-254.4l-31.4,150.6" fill="#ffffff"/>
			<g id="head-3">
				<path id="ear-3" class="st0" d="M1291.2,125.7c0,0,19.2,10.5,25.5-9.5c4.7-15.2-9.1-19.8-16.4-21.2" fill="#ffffff"/>
				<path id="neck-3" class="st0" d="M1242.1,151.8l6.9,15.3l-11.3-2.5c-1.2,2.2-15.8,33.7,19.5,41.8c23.2,5.3,50.1-13.6,62.2-30.7      l-19.6-3.6l-15.6-37.6" fill="#ffffff"/>
				<path id="face-3" class="st0" d="M1216.5,85.5c-2.7,9.2-10.4,52.7,17.5,63.5s54.1-10.9,64-37.7s3.7-53-13.8-60.2      S1236.1,19.1,1216.5,85.5z" fill="#ffffff"/>
				<path id="mouth-3" class="st1" d="M1245,120.8c-4.2,0.8-8.6,0.2-12.4-1.8c-0.9-0.4-1.9-0.1-2.4,0.8c-0.1,0.2-0.1,0.4-0.2,0.6      c-0.6,3.4-0.4,9.4,7.1,11.2c7.9,1.9,9.5-5,9.8-8.9c0.1-1-0.6-1.9-1.6-2C1245.3,120.8,1245.1,120.8,1245,120.8z" fill="#ffffff"/>
				<polyline id="nose-3" class="st0" points="1240.2,108.4 1231.5,106.2 1246.2,72.7     " fill="#ffffff"/>
				<path id="brow-3" class="st0" d="M1265.3,83.2c0,0-4.3-8.2-11-5.2" fill="#ffffff"/>
				<path id="brow-4" class="st0" d="M1242.2,64.2c0,0-5.4-7.5-11.6-3.6" fill="#ffffff"/>
				
					<ellipse id="eye_II-3" transform="matrix(0.2016 -0.9795 0.9795 0.2016 903.54 1304.4066)" class="st1" cx="1251.9" cy="98" rx="4.7" ry="3" fill="#ffffff"/>
				
					<ellipse id="eye-3" transform="matrix(0.2016 -0.9795 0.9795 0.2016 886.1006 1272.1527)" class="st1" cx="1223.4" cy="92.6" rx="4.7" ry="3" fill="#ffffff"/>
				<g id="glasses">
					
						<ellipse transform="matrix(0.1673 -0.9859 0.9859 0.1673 958.712 1321.9143)" class="st5" cx="1261.9" cy="93.4" rx="25.4" ry="18.8" fill="#ffffff"/>
					
						<ellipse transform="matrix(0.1673 -0.9859 0.9859 0.1673 927.3856 1266.0769)" class="st5" cx="1213.2" cy="84" rx="25.4" ry="18.8" fill="#ffffff"/>
					<line class="st5" x1="1232.9" y1="81" x2="1244.4" y2="83.2" fill="#ffffff"/>
					<line class="st5" x1="1281.3" y1="87.8" x2="1307.4" y2="96.7" fill="#ffffff"/>
				</g>
				<path id="hair-3" class="st1" d="M1332.2,80.9c-2.1-13.9-22.7-36.9-41.6-36.7c-24.4-24.8-61-49.7-82.2-6c-2,4-0.3,8.8,3.7,10.8      c0.5,0.2,1,0.4,1.5,0.6l69.4,18c1.9,10.4,7.3,27.1,21.9,33.8c4.2,1.9,7.1,1.7,8.9,0c3.3,3.3,5.1,8,2.9,14.8      c-5.8,18.7-23.6,10.5-25.8,9.3c-3.6,5.6-4.2,7.4-9.1,11.6c15.1,8.3,27.7,15.4,37.6,2.3C1332.3,122.3,1335,100.3,1332.2,80.9z" fill="#ffffff"/>
			</g>
			<g id="hand_II-2">
				<path id="hand-7" class="st0" d="M1030.8,116.2c-8.1,0.1-17.6,0.2-17.6,0.2s-19.1,3.7-22.1,4.2s-17.8,7.9-17.1,9.5      c1.5,4.1,13.9,1.5,20.2-1.1s20.5,0.1,20.5,0.1s3.9,11.9,1.3,11.9s-16.9-1.1-19,3.3s-1.2,7.8,4.3,7.1s13.2,3,13.2,3      s20-3.4,24.9-5.9s25.3,45.3,44.9,76.6s32.6,34.5,48.8,22c15.7-12.1-5.1-40.8-14.7-51.2c-7.6-8.3-50.5-52.8-68.5-71.6      C1045,119,1038,116.1,1030.8,116.2z" fill="#ffffff"/>
			</g>
			<path id="forearm" class="st0" d="M1309.3,390l0.4,0.2c0,0,99.7-33.1,128.9-60.2c14-13-15.2-52.5-71.7-4.9     c-5.8,4.9-12,9.5-18.4,13.7" fill="#ffffff"/>
			<path id="laptop-3" class="st1" d="M1386.6,356.5l-23.6,0.6l-20.2-95c-0.3-2-2.1-3.5-4.1-3.6l-149.4,2.3c-2.7,0-4.7,2.9-4.1,5.8     l18.9,101.3c1.3,6.3,9.2,11.1,14.9,11l42.6-0.8c-1.9-2.4-3.6-4.9-5-7.6c-7.5-14-16.3-32.8-10.4-35.7c2.7-0.5,5.6,3.5,8.1,8.4     c-2.2-6.6-3.7-13.4-0.5-14s6.2,3.3,9.3,10.4c-1.5-4.4-2.7-8.4-2.7-9.7c0.3-7.9,5.7-10,12.2,7.1l-2.2-7.4c-1.4-8,5.9-6.8,9.9,0.4     c2.5,4.6,7.6,15.6,11.8,25.5c2.2-3.8,7-10.9,11.5-7.9s-2.3,16.1-5.7,22c0.4,1,0.7,1.9,1,2.7l7.3,5c32.8-0.6,61.7-1.2,63.9-1.2     C1390,376,1386.6,356.5,1386.6,356.5z" fill="#ffffff"/>
			<g id="hand-8">
				<path class="st0" d="M1319.7,386.6c-33.3,14-53,2.9-63.1-15.9c-7.5-14-16.3-32.8-10.4-35.7c6.2-1.3,13.7,22.1,13.7,22.1      s-12.5-26.4-6.1-27.8c5-1,9.8,9.7,15.2,26.2c0,0-8.6-22-8.5-25.5c0.3-10,8.9-10.8,17.4,24.8l-7.4-25c-1.4-8,5.9-6.8,9.9,0.4      c2.5,4.5,7.3,15,11.5,24.8" fill="#ffffff"/>
				<path class="st0" d="M1292.3,356c0,0,5.4-12,11.3-8.1s-7.5,25-7.5,25" fill="#ffffff"/>
			</g>
		</g>
		<g id="hoodie_man">
			<g id="body">
				<path id="hoodie" class="st0" d="M996.8,440.2c-39.3,11.3-48,27.2-43.2,42.8c-15.8,9.5-48,32.6-76.9,77.4      c-40,62,89.1,160,111.8,160s183.2-62.7,183.2-62.7l9.4-28.6c13.6-41.1,1.8-86.3-30.2-115.4l-0.7-0.7      c-17.3-15.5-33.9-34.8-50-42.4c-2.2-11.6-8.5-24-25.2-30.9" fill="#ffffff"/>
				<path id="shape_II" class="st1" d="M1096.7,469.2c1.8,9,1.1,17.5,0.8,22.7c-0.9,21.7-9.1,33.4-11.5,41.5      c15.8-9.4,30.4-31.1,37.6-45.4C1119.1,483.7,1104.6,473,1096.7,469.2z" fill="#ffffff"/>
				<path id="shape-4" class="st1" d="M1010.2,535c-7.8-3.6-47.6-29.3-54.3-54.3c-8,4.3-20.6,11.9-28.4,21.2      c9,5.5,59.8,35.7,82.3,34l0.9-0.1C1010.5,535.5,1010.3,535.2,1010.2,535z" fill="#ffffff"/>
				<path id="shirt-3" class="st1" d="M1071.4,535.2c8.6-24.9,2.1-52.7-3.9-60.8c-3.8,14.9-10.9,28.7-20.9,40.3      c-14.6-16.6-31.3-31.2-49.7-43.4l0.7-0.8l-1.7,0.1l-9.1,9.4c0,0,43.3,32.9,57.4,112.3c9.2,51.5,13.8,100,13.8,100l26.8-1.4      C1084.8,690.8,1062,562.4,1071.4,535.2z" fill="#ffffff"/>
				<g id="head-4">
					<path id="ear-4" class="st0" d="M985,415.5c-4.1,1.8-11.8,6.6-7,16.7c4.2,9,12.6,6.3,17.6,3.6" fill="#ffffff"/>
					<path id="face-4" class="st0" d="M1062.1,372c9,22.9,12.1,49.9,12.4,62.5" fill="#ffffff"/>
					<path id="neck-4" class="st0" d="M1005.8,455.1l-0.4,6.3l-8.6,9.9l0,0c18.4,12.2,35.2,26.8,49.7,43.4c0,0,19-20,23.1-51.6" fill="#ffffff"/>
					<path id="beard" class="st0" d="M996.3,415.6c3.2,2,13.9,15.3,17.3,21.9c0,0,15.7-10.1,40.2-16.5c0,0,13.4-3,19.2-2.7       c0,0,5,25.1-2.7,40.7s-31.5,17.6-44.2,12.5s-15.4-8.3-19.9-16s-18.7-36.9-18.7-36.9L996.3,415.6z" fill="#ffffff"/>
					<path id="hair-4" class="st1" d="M990.7,422.6c0,0-10.2-9.6-16-20.8c-5.5-10.5-3-23.4,6-31.1c7.6-6.3,14.8-4.6,14.8-4.6       s-13-13.4-2.7-30.6c3.7-6.1,9.7-10.4,16.6-11.9c9.6-2.3,19.7,1.4,25.7,9.3c0,0,9.8-37.5,51.6-27.1c4.2,1.1,9.8,5.5,12.7,8.7       c17.8,19.5-15.9,56-36.3,63.3c-22.4,8-36.8,7.5-45.6,3.7C1023.9,383.6,1026.2,419.5,990.7,422.6z" fill="#ffffff"/>
					<polyline id="nose-4" class="st0" points="1053.2,411 1061,432 1052.9,431.9      " fill="#ffffff"/>
					
						<ellipse id="eye_II-4" transform="matrix(0.9708 -0.2399 0.2399 0.9708 -66.9948 266.9164)" class="st1" cx="1062.9" cy="408.7" rx="2.3" ry="3.5" fill="#ffffff"/>
					
						<ellipse id="eye-4" transform="matrix(0.9988 -4.993762e-02 4.993762e-02 0.9988 -19.3365 52.6205)" class="st1" cx="1043.4" cy="413.3" rx="2.3" ry="3.5" fill="#ffffff"/>
					<path id="brow_II-2" class="st0" d="M1028.3,405.1c1.7-3.4,5.2-5.6,9-5.7" fill="#ffffff"/>
					<path id="brow-5" class="st0" d="M1055.2,389.2c0,0,7.2-4.7,11.4-0.6" fill="#ffffff"/>
					<path id="mouth-4" class="st6" d="M1052.8,446.8c-7.1-0.7-9.6-4.2-9.6-4.2l12.3-0.8C1055.6,441.7,1057.6,446.6,1052.8,446.8z" fill="#ffffff"/>
				</g>
				<g id="lines-2">
					<path class="st0" d="M1015.1,529.1c0,0,12.1,28,14,47.7" fill="#ffffff"/>
					<path class="st0" d="M1079.9,530.4c0,0,2.1,24.4,4.2,44.1" fill="#ffffff"/>
					<path class="st0" d="M932.2,588.7c0,0,12.8-14.2,33.8-1.1l18.7-16.6" fill="#ffffff"/>
					<path class="st0" d="M1013.1,614.4c-2.3-1.1-48.9-27.7-48.9-27.7" fill="#ffffff"/>
					<line class="st0" x1="1128.7" y1="586.1" x2="1119.4" y2="565" fill="#ffffff"/>
				</g>
				<path id="trousers-3" class="st1" d="M1010.8,696.6c0,0-46.4-19.3-103.8-59.1s-94,21.8-78.5,47c13.6,22.2,90,98.6,90,98.6      l260.2-2.1c0,0,61.2-76.9,70.8-89c32.4-40.8,5.6-62.3-30-65.4c-33.6-2.9-124.2,63.1-135.3,71.6L1010.8,696.6z" fill="#ffffff"/>
			</g>
			<path id="laptop-4" class="st1" d="M1170,583.9h-167.3c-2.2,0-4.1,1.5-4.6,3.6l-22.7,95.9h-42c0,0-3.8,19.7,18.4,19.7h23.6     c0.4,0.1,0.9,0.2,1.3,0.2H1144c2.2,0,4.1-1.5,4.6-3.6l26-109.9c0.6-2.5-1-5.1-3.5-5.7C1170.7,584,1170.4,583.9,1170,583.9z" fill="#ffffff"/>
		</g>
		<line id="line-4" class="st0" x1="3" y1="782.7" x2="1573.4" y2="782.7" fill="#ffffff"/>
	</g>
</g>
</svg>