<svg xmlns="http://www.w3.org/2000/svg" viewBox="0 0 1467.93 669.47"><defs><style>.cls-1{fill:#111;}.cls-2,.cls-3,.cls-4{fill:none;}.cls-2,.cls-3,.cls-5{stroke:#111;}.cls-2,.cls-3,.cls-4,.cls-5{stroke-linecap:round;stroke-linejoin:round;}.cls-2,.cls-4,.cls-5{stroke-width:6px;}.cls-3{stroke-width:8px;}.cls-4{stroke:#6d6d6d;}.cls-5{fill:#fff;}</style></defs><g id="Layer_2" data-name="Layer 2"><g id="outline"><g id="contact_us" data-name="contact us"><g id="developer"><g id="body"><path class="cls-1" d="M772.39,280.1c-.14-.13-.31-.26-.48-.39-6.32,37.62-37.84,60.79-37.84,60.79-27.65-31.46-53.68-49.77-65.7-59.86a27,27,0,0,1-9-14.75L639.47,274s62.95,32.66,71.54,161.5l37.29.57c4.48.07,7.78,4.77,6.76,9.6L723.92,612.08a20.23,20.23,0,0,1-6.2,10.26c0,27-.28,44.75-.28,44.75l46.55-.51s-12.3-264.25,8.19-310.09S782.61,289.69,772.39,280.1Z"/><path class="cls-2" d="M989.46,278.36l-98.19-19.24H827.63c.11-19.45-3.66-44.28-29.37-59.39"/><path class="cls-2" d="M1236.78,343.46A71,71,0,0,0,1152.1,237.2v0l-69.83,25.12"/><path class="cls-2" d="M366.56,259.5l-101.05-7c-4.79-1-19.36-1.4-19.36-1.4-38.53,2.42-69.06,35.55-69.06,76.08a76.91,76.91,0,0,0,32.48,63.23"/><path class="cls-2" d="M628.71,202.15C582,218.9,579.8,247.59,593.8,275.32l-89.41-6.23"/><path id="neck" class="cls-2" d="M658.67,221.87v37.22a27.11,27.11,0,0,0,9.68,21.55c12,10.09,38.06,28.4,65.71,59.86,0,0,27.24-20,36.15-53.05"/><path id="shadow" class="cls-1" d="M824.66,255.19l0,3.43c0,6.89-.57,13.1-.78,18-1.46,34-14.67,52.57-21.17,66.14,39.75-7.31,80.85-50.26,88.94-83.61C883.47,251.6,839.19,247.31,824.66,255.19Z"/><path id="shadow_II" data-name="shadow II" class="cls-1" d="M656.94,350.18c-11.68-5.37-47.58-38.11-62.47-80.81-12.87-7-49.08-4-59.52,2C575.83,355.75,657,350.3,656.94,350.18Z"/><path id="string_II" data-name="string II" class="cls-3" d="M673.71,344.84s13.08,53.38,17.36,90.34"/><path id="string" class="cls-3" d="M790.33,342.09s-16,74.72-11.89,109.22"/></g><g id="head"><path id="ear" class="cls-2" d="M649.71,172.9c-5.55.49-26.33,3.81-21.92,25.83,3.49,17.47,19.44,15.94,29,13.3"/><path id="face" class="cls-2" d="M796,131.73c4,30.68,2,63.65-1.16,87.77"/><path id="beard" class="cls-2" d="M666,178.18c4.64,4.7,17.09,31.82,20.13,44.47,0,0,30.84-10.63,75-11.28,0,0,24.08.5,33.68,3.42,0,0-2.08,44.77-21.6,68s-60.81,16.7-80.17,2.76-22.56-20.59-27-35.5-16.33-70.52-16.33-70.52Z"/><path id="hair" class="cls-1" d="M649.71,187.82s-9.5-20.68-14.64-42.09c-4.83-20.14,4.53-41.24,23.17-50.26,15.6-7.55,27.17-1.63,27.17-1.63s-16.56-28.18,8.28-53.08a45.24,45.24,0,0,1,33.24-13.25,43.59,43.59,0,0,1,39.7,26.54s32.48-59.66,99-24.35c6.72,3.56,14.28,13.49,17.9,20.17,22,40.51-50.47,88.51-88.2,92.3-41.42,4.17-65.67-2.69-79-12.83C726.29,135.31,711.32,197.36,649.71,187.82Z"/><path id="mouth" class="cls-2" d="M734.07,242.37s1.88,11.83,12.76,9.91"/><polyline id="nose" class="cls-2" points="764.52 194.13 768.99 233.15 755.24 229.63"/><ellipse id="eye_II" data-name="eye II" class="cls-1" cx="778.44" cy="192.08" rx="4" ry="6.18"/><ellipse id="eye" class="cls-1" cx="739.96" cy="191.41" rx="4" ry="6.18"/><path id="brow_II" data-name="brow II" class="cls-2" d="M723.11,165.53a18.29,18.29,0,0,1,17.34-6.82"/><path id="brow" class="cls-2" d="M777.15,158.06s11.08-2.88,13.85,6.18"/></g></g><g id="man"><g id="hand"><path class="cls-2" d="M1353,332.21l2.31-2.89s6.86-33.2,11.69-44.8,22.33-20.85,16.78-4.06-3.63,23.81-3.63,23.81,25-26.59,35.47-46.7c10.72-20.58,17.73-.27,17.73-.27s13.76-5.74,12.77,3.69c0,0,13.13-.17,6.7,11.21,0,0,14.76-6.73,11.7,6.28,1.19,15.24-25.73,61.35-51.45,74.06l-8.88,12.34"/><path class="cls-2" d="M1402.9,299.05s26.11-25.61,30.44-41.75"/><path class="cls-2" d="M1413.09,307.16c2.45-3.42,24.22-22.32,30.9-46.39"/><path class="cls-2" d="M1423.45,315.73c5.19-7,20.94-15.15,29.9-42.75"/></g><path id="shirt" class="cls-2" d="M1220.82,326.24l64.49,75.88,60-74.8,71.75,45.77-103,141.26a52.46,52.46,0,0,1-71.44,3.21l-42-39.57L1216,666.47H954.78l.73-33"/><path id="shirt-2" data-name="shirt" class="cls-2" d="M1091.14,285c11.32-1.07,22.51-2,33.36-2.67"/><path id="shirt-3" data-name="shirt" class="cls-2" d="M836,487.74,896.6,361c9-23,22.15-46.63,46.13-52.54,17.61-4.33,38.5-8.48,60.94-12.18"/><path id="neck-2" data-name="neck" class="cls-2" d="M1001.71,282.67l5.08,35.32c25.91,72.56,90.75-16.65,85.75-29.42l-16.44-42"/><g id="head-2" data-name="head"><path id="face-2" data-name="face" class="cls-2" d="M1085.69,173.86s4-73.08-70-78.21c-6.89-.48-54.12-2.8-58.74,36.63-3.08,26.34-1.35,54.43,1.52,76.08,0,.12,4.8,41,23.24,62.09s54,15.41,71.88,2.31,20.71-19.27,24.69-33.08,7.39-65.67,7.39-65.67Z"/><polyline id="nose-2" data-name="nose" class="cls-2" points="986.77 189.42 983.14 225.45 995.77 222.03"/><ellipse id="eye_II-2" data-name="eye II" class="cls-1" cx="976.21" cy="182.94" rx="5.7" ry="3.69" transform="matrix(0.02, -1, 1, 0.02, 774.03, 1155.35)"/><ellipse id="eye-2" data-name="eye" class="cls-1" cx="1011.41" cy="184.31" rx="3.69" ry="5.7" transform="translate(-16.58 172.01) rotate(-9.64)"/><path id="brow_II-2" data-name="brow II" class="cls-2" d="M1023.36,161.05a16.89,16.89,0,0,0-16.39-5.16"/><path id="brow-2" data-name="brow" class="cls-2" d="M974.67,156.32s-13.19-4.41-18,3.77"/><path id="hair_front" data-name="hair front" class="cls-1" d="M1023.22,125.93s-17.87,99.17,47.26,102.67c0,0,38,2.88,45.23-11.18,0,0-28.51-11.67-26.64-27.46,0,0,33.77,30.33,57.86,3.72,0,0-44.94-2.94-45-43.12C1101.89,121.74,1030.76,101.81,1023.22,125.93Z"/><path id="cap" class="cls-1" d="M1141.79,127.79l-39.63-2c-6.67-25.91-25.76-62-80.31-62.91-85.23-1.36-79.55,80.88-79.55,80.88l198.2,9.59a12.8,12.8,0,1,0,1.29-25.56Z"/><path id="mouth-2" data-name="mouth" class="cls-2" d="M1022.5,227.9s-4.08,13-22,12"/><path id="hair_back" data-name="hair back" class="cls-1" d="M958.46,208.36c-2.87-21.65-4.6-49.74-1.52-76.08.19-1.6.46-3.12.78-4.58-16-4.8-22.55,20.48-12.37,60.09,5,19.25-4.46,36.7-4.46,36.7,8.88,1.27,15.12-.88,19.52-4.6C959,213,958.46,208.4,958.46,208.36Z"/></g><g id="lines"><line class="cls-2" x1="928.55" y1="524.07" x2="950.77" y2="464.53"/><path class="cls-2" d="M1285.31,402.12s-29.2,16.92-24.78,41.27"/><path class="cls-2" d="M1281.19,401.2s-28.8-8.9-39,22.58"/></g><g id="hand_with_tablet" data-name="hand with tablet"><path id="tablet" class="cls-2" d="M802.39,563.59l-43.67-59.65a10.19,10.19,0,0,1,8.22-16.2H896.79a10.18,10.18,0,0,1,8.21,4.17L995.27,615.2a10.19,10.19,0,0,1-8.22,16.2H857.21a10.19,10.19,0,0,1-8.22-4.17l-1-1.38"/><g id="hand-2" data-name="hand"><path class="cls-2" d="M872.8,563.48c5-1.81,20.67-11.5,25.17-9.76,9.32,3.6-4.39,13-14.27,21.6"/><path class="cls-2" d="M899.06,588.21c3.64-.44,7.06.61,9,4.9,2.24,5-17,20.34-35.21,25.8-17.4,5.22-74,24.63-74.16-28.52,0-8.72,2-20.34,8.23-40.32,8-25.34,22-14.62,20.85-5.44s-.46,26.65-.46,26.65S855.82,548.41,873,548c21.11-.57,4.42,14.94-29.62,35.63"/><path class="cls-2" d="M859.12,593.11s14.71-9.23,24.58-17.79l2.65-2.58s15-10.79,23-5-10.3,21.22-31.14,33.46"/></g></g></g><g id="woman"><path id="shirt-4" data-name="shirt" class="cls-2" d="M299.16,293.93c1.72-.88,3.46-1.75,5.24-2.62,11.61-5.64,34.41-5.94,61.09-3.35"/><path id="shirt-5" data-name="shirt" class="cls-2" d="M294.52,483.38l2-34.89L213.13,372s7.72-15.71,27.12-35.33"/><line id="shirt-6" data-name="shirt" class="cls-2" x1="284.15" y1="665.38" x2="285.37" y2="643.88"/><path id="shirt-7" data-name="shirt" class="cls-2" d="M522.43,627c.85,22.68,1.39,39.48,1.39,39.48"/><path id="shirt-8" data-name="shirt" class="cls-2" d="M483.74,310.11c16.89,4.39,30,8.42,36.23,11.05,24.16,10.19,55.12,95.35,60.69,111.16"/><g id="lines-2" data-name="lines"><path class="cls-2" d="M512.32,367.92s22.24,26.25,24.12,64.91"/><polyline class="cls-2" points="348.37 413.66 308.54 458.92 293.97 446.16"/></g><g id="arm"><path class="cls-2" d="M314.71,621.56s-17.22,19.32-42.44,26c-15,4-34.93,8.67-38.54,5.37-4.63-4.22,4-9.92,11-13.64"/><path class="cls-2" d="M230,625.53c-5.8,2.78-7.83,7-3.55,10.63,3.12,2.68,49.62,5.77,62.51,1.31,10-3.45,12.68-6.68,28.57-19.91"/><path class="cls-2" d="M315.06,620.68c6-7.28,9.77-13.75,11.74-19.46,0,0,3.9-11.71,2.39-17.31-7.34-27.17-16.91-80-51.4-126.25l12.3-15.06-70.95-65.12c-8.79,13-17.16,25.34-24.22,35.67a47.63,47.63,0,0,0,2.69,57.3l81.57,98.25L274,585c-7.73,3.64-27.4,13.76-27.4,13.76-21.3,7.58-9.78,13.9.18,13.32s25.12-7.64,27.15-9.23c0,0-21.37,10.87-34.4,8.9-8.46.2-14,8.57-13.62,11.18s9.8,2.33,23.37,3.22,26.81-6.93,26.81-6.93"/></g><path id="laptop" class="cls-2" d="M560.85,627.71c-55.85-1-105.91-2-109.58-2-32.58-.5-27-32.52-27-32.52l38.78,1.05,33.18-156a7,7,0,0,1,6.75-5.84l245.32,3.73c4.48.07,7.78,4.77,6.76,9.6L723.92,612.08c-2.17,10.29-15.17,18.29-24.46,18.13-11.9-.19-28.51-.48-47.55-.82"/><g id="hand-3" data-name="hand"><path class="cls-2" d="M671.44,595.29c5.54-1.53,11.23-1.6,13.33,3.35,3.31,7.78-15,18.54-25.64,24"/><path class="cls-2" d="M562,626.11c52.6,24.5,82.59,21.2,99.09-9.65,12.31-23,27.35-58.94,17.23-60.23-10.63,1.41-22.65,38-22.65,38s20.66-44.06,9.65-42.74c-8.53,1.19-15.66,13-24.5,40.12,0,0,13.38-29.88,13.14-35.36-.69-15.54-13.84-24.2-27.72,34.19l7.43-28.93c2.3-13.25-10.27-7.05-17.09,6.52-7.29,14.51-20.3,37.54-25,51.5Z"/></g><g id="head-3" data-name="head"><g id="ponytail"><rect class="cls-1" x="404.43" y="51.56" width="17" height="29.92" transform="translate(827.33 9.94) rotate(163.07)"/><circle class="cls-1" cx="399.92" cy="29.93" r="29.93"/></g><path class="cls-1" d="M498.18,75.55c-24.34-12.71-58.92-14.41-85.26-9C328.23,85.08,303.52,195.9,290.6,230.24c-2.07,5.49,1.87,11.9,7.82,12.72l105,28.41,10.51-41.93s-1.39-5.56-2.84-11.42l-1.56.14s-34.73.15-31.82-31.74c1.82-19.91,18.18-20.59,30.21-18.3.2-2.06.33-3.3.33-3.27h0c44.32,4.55,98.77-16.73,114.46-39.18,13.44,10.78,18.94,26.77,16.55,67h0C571.45,170.28,571.81,118.22,498.18,75.55Z"/><path id="neck-3" data-name="neck" class="cls-2" d="M474.5,279.85l-3,26.39,12.21,4.13c1.72,3.42,18,52.77-36.34,49.91-35.41-1.87-77.2-47.14-81.84-72.32l12.05-.25c15.27-1.27,22-6.17,26.51-20.83l10.73-35.23"/><path id="face-3" data-name="face" class="cls-2" d="M539.28,192.64h0c2.39-40.21-3.1-54.67-16.53-65.44-15.45,22.09-64,43.5-113.39,37.79-1.72,5.38-.3.57-1.25,6.6-.58,6.3-1.14,13.44-1.38,19.49.63,23.06,7.2,38.36,7.2,38.36v0c9,23.65,26.53,43.07,52.61,49.18,45.52,10.65,67-52.57,70.08-66.84,1.52-7.08,2.69-19.18,2.69-19.18Z"/><polyline id="nose-3" data-name="nose" class="cls-2" points="495.07 223.05 508.38 224.93 506.66 171.15"/><path id="brow_II-3" data-name="brow II" class="cls-2" d="M468.11,166.86s9.84-9.57,18.11-2.3"/><path id="mouth-3" data-name="mouth" class="cls-2" d="M485.86,245.74s-13.62,1.66-15.81-9.14"/><path id="brow-3" data-name="brow" class="cls-2" d="M522.5,172.88s12.59-5.47,17.76,4.25"/><ellipse id="eye_II-3" data-name="eye II" class="cls-1" cx="478.16" cy="190.75" rx="6.9" ry="4.46" transform="translate(207.46 628.63) rotate(-80.02)"/><ellipse id="eye-3" data-name="eye" class="cls-1" cx="524.88" cy="198.69" rx="6.9" ry="4.46" transform="translate(238.27 681.21) rotate(-80.02)"/><g id="glasses"><ellipse class="cls-4" cx="470.11" cy="180.46" rx="37.3" ry="28.3" transform="matrix(0.17, -0.99, 0.99, 0.17, 212.72, 613.26)"/><ellipse class="cls-4" cx="543.78" cy="195.82" rx="37.3" ry="28.3" transform="translate(258.78 698.62) rotate(-80.26)"/><line class="cls-4" x1="515.78" y1="185.47" x2="498.18" y2="183.05"/><line class="cls-4" x1="443.44" y1="169.24" x2="405.16" y2="167.98"/></g></g></g><g id="hands_developer" data-name="hands developer"><g id="hand_II" data-name="hand II"><path class="cls-2" d="M313.38,321.63s17.8,25.49,23.4,33.62c8.69,12.6,6.64,27-6.86,22.82"/><path class="cls-2" d="M300.08,340.24s32,37.22,34.3,47.93c2.15,10.05-9.37,16.5-19.89,3.46"/><path class="cls-2" d="M287.4,350.21s30.35,35.88,26.74,48c-4.05,13.59-23.34-13.88-30.26-21.8"/><path class="cls-2" d="M313.38,321.63l16.35,7.92a14,14,0,0,0,1.39.57c10.18,3.34,14-.13,15.35-4.17a11.39,11.39,0,0,0-3.29-11.84c-19.2-17.79-67.75-23-67.75-23-11.85-1.37-42.85,11.61-37.2,37.69s24,59.34,41.35,69,21.43-1.73,4.3-21.37c-.22-.26-12.68-15.94-12.68-15.94"/></g><g id="hand-4" data-name="hand"><path class="cls-2" d="M1156.8,287s-16.16,26.56-21.24,35c-8.2,13.64-4.68,28.46,9.92,21.65"/><path class="cls-2" d="M1171.25,304.7s-29.62,39.15-31.23,50,12,16.61,22-.8"/><path class="cls-2" d="M1184.53,313.85s-28,37.71-23.68,49.56c4.89,13.31,22.43-15.32,28.83-23.66"/><path class="cls-2" d="M1156.8,287,1141,295.89a13.94,13.94,0,0,1-1.35.65c-10,4-14,.76-15.58-3.19a11.39,11.39,0,0,1,2.54-12c18.05-19,66.17-27.23,66.17-27.23,11.74-2.11,43.49,8.9,39.49,35.28s-20.22,60.74-36.94,71.44-21.49-.38-5.63-21.06c.21-.27,11.66-16.7,11.66-16.7"/></g></g><line id="line" class="cls-5" x1="3" y1="666.47" x2="1397.89" y2="666.47"/></g></g></g></svg>